<svg width="23" height="23" viewBox="0 0 23 23" fill="none" xmlns="http://www.w3.org/2000/svg">
<path d="M10.5417 16.2915H12.4584V12.4582H16.2917V10.5415H12.4584V6.70817H10.5417V10.5415H6.70835V12.4582H10.5417V16.2915ZM11.5 21.0832C10.1743 21.0832 8.92849 20.8316 7.76252 20.3285C6.59655 19.8254 5.58231 19.1425 4.71981 18.28C3.85731 17.4175 3.1745 16.4033 2.67137 15.2373C2.16825 14.0714 1.91669 12.8255 1.91669 11.4998C1.91669 10.1741 2.16825 8.92831 2.67137 7.76234C3.1745 6.59636 3.85731 5.58213 4.71981 4.71963C5.58231 3.85713 6.59655 3.17432 7.76252 2.67119C8.92849 2.16807 10.1743 1.9165 11.5 1.9165C12.8257 1.9165 14.0715 2.16807 15.2375 2.67119C16.4035 3.17432 17.4177 3.85713 18.2802 4.71963C19.1427 5.58213 19.8255 6.59636 20.3287 7.76234C20.8318 8.92831 21.0834 10.1741 21.0834 11.4998C21.0834 12.8255 20.8318 14.0714 20.3287 15.2373C19.8255 16.4033 19.1427 17.4175 18.2802 18.28C17.4177 19.1425 16.4035 19.8254 15.2375 20.3285C14.0715 20.8316 12.8257 21.0832 11.5 21.0832ZM11.5 19.1665C13.6403 19.1665 15.4531 18.4238 16.9386 16.9384C18.424 15.453 19.1667 13.6401 19.1667 11.4998C19.1667 9.35956 18.424 7.54671 16.9386 6.0613C15.4531 4.57588 13.6403 3.83317 11.5 3.83317C9.35974 3.83317 7.5469 4.57588 6.06148 6.0613C4.57606 7.54671 3.83335 9.35956 3.83335 11.4998C3.83335 13.6401 4.57606 15.453 6.06148 16.9384C7.5469 18.4238 9.35974 19.1665 11.5 19.1665Z" fill="#0E0E0E"/>
</svg>
