<svg width="24" height="24" viewBox="0 0 24 24" fill="none" xmlns="http://www.w3.org/2000/svg">
<path d="M20.2154 20.7905C18.132 20.7905 16.0737 20.3364 14.0404 19.428C12.007 18.5197 10.157 17.2322 8.49038 15.5655C6.82371 13.8989 5.53621 12.0489 4.62788 10.0155C3.71955 7.98219 3.26538 5.92386 3.26538 3.84053C3.26538 3.54053 3.36538 3.29053 3.56538 3.09053C3.76538 2.89053 4.01538 2.79053 4.31538 2.79053H8.36538C8.59871 2.79053 8.80705 2.86969 8.99038 3.02803C9.17371 3.18636 9.28205 3.37386 9.31538 3.59053L9.96538 7.09053C9.99871 7.35719 9.99038 7.58219 9.94038 7.76553C9.89038 7.94886 9.79871 8.10719 9.66538 8.24053L7.24038 10.6905C7.57371 11.3072 7.96955 11.903 8.42788 12.478C8.88621 13.053 9.39038 13.6072 9.94038 14.1405C10.457 14.6572 10.9987 15.1364 11.5654 15.578C12.132 16.0197 12.732 16.4239 13.3654 16.7905L15.7154 14.4405C15.8654 14.2905 16.0612 14.178 16.3029 14.103C16.5445 14.028 16.782 14.0072 17.0154 14.0405L20.4654 14.7405C20.6987 14.8072 20.8904 14.928 21.0404 15.103C21.1904 15.278 21.2654 15.4739 21.2654 15.6905V19.7405C21.2654 20.0405 21.1654 20.2905 20.9654 20.4905C20.7654 20.6905 20.5154 20.7905 20.2154 20.7905Z" fill="#1C1B1F"/>
</svg>
