<svg width="24" height="24" viewBox="0 0 24 24" fill="none" xmlns="http://www.w3.org/2000/svg">
<path d="M7 9.24756V7.24756H21V9.24756H7ZM7 13.2476V11.2476H21V13.2476H7ZM7 17.2476V15.2476H21V17.2476H7ZM4 9.24756C3.71667 9.24756 3.47917 9.15173 3.2875 8.96006C3.09583 8.76839 3 8.53089 3 8.24756C3 7.96423 3.09583 7.72673 3.2875 7.53506C3.47917 7.34339 3.71667 7.24756 4 7.24756C4.28333 7.24756 4.52083 7.34339 4.7125 7.53506C4.90417 7.72673 5 7.96423 5 8.24756C5 8.53089 4.90417 8.76839 4.7125 8.96006C4.52083 9.15173 4.28333 9.24756 4 9.24756ZM4 13.2476C3.71667 13.2476 3.47917 13.1517 3.2875 12.9601C3.09583 12.7684 3 12.5309 3 12.2476C3 11.9642 3.09583 11.7267 3.2875 11.5351C3.47917 11.3434 3.71667 11.2476 4 11.2476C4.28333 11.2476 4.52083 11.3434 4.7125 11.5351C4.90417 11.7267 5 11.9642 5 12.2476C5 12.5309 4.90417 12.7684 4.7125 12.9601C4.52083 13.1517 4.28333 13.2476 4 13.2476ZM4 17.2476C3.71667 17.2476 3.47917 17.1517 3.2875 16.9601C3.09583 16.7684 3 16.5309 3 16.2476C3 15.9642 3.09583 15.7267 3.2875 15.5351C3.47917 15.3434 3.71667 15.2476 4 15.2476C4.28333 15.2476 4.52083 15.3434 4.7125 15.5351C4.90417 15.7267 5 15.9642 5 16.2476C5 16.5309 4.90417 16.7684 4.7125 16.9601C4.52083 17.1517 4.28333 17.2476 4 17.2476Z" fill="#1C1B1F"/>
</svg>
