<svg width="24" height="24" viewBox="0 0 24 24" fill="none" xmlns="http://www.w3.org/2000/svg">
<path d="M4.23535 21.2476C3.68535 21.2476 3.21452 21.0517 2.82285 20.6601C2.43118 20.2684 2.23535 19.7976 2.23535 19.2476V8.24756C2.23535 7.69756 2.43118 7.22673 2.82285 6.83506C3.21452 6.44339 3.68535 6.24756 4.23535 6.24756H8.23535V4.24756C8.23535 3.69756 8.43118 3.22673 8.82285 2.83506C9.21452 2.44339 9.68535 2.24756 10.2354 2.24756H14.2354C14.7854 2.24756 15.2562 2.44339 15.6479 2.83506C16.0395 3.22673 16.2354 3.69756 16.2354 4.24756V6.24756H20.2354C20.7854 6.24756 21.2562 6.44339 21.6479 6.83506C22.0395 7.22673 22.2354 7.69756 22.2354 8.24756V19.2476C22.2354 19.7976 22.0395 20.2684 21.6479 20.6601C21.2562 21.0517 20.7854 21.2476 20.2354 21.2476H4.23535ZM4.23535 19.2476H20.2354V8.24756H4.23535V19.2476ZM10.2354 6.24756H14.2354V4.24756H10.2354V6.24756Z" fill="#1C1B1F"/>
</svg>
