<svg width="24" height="24" viewBox="0 0 24 24" fill="none" xmlns="http://www.w3.org/2000/svg">
<path d="M12 22C11.7843 22 11.5882 21.9363 11.4118 21.8088C11.2353 21.6814 11.1078 21.5098 11.0294 21.2941C10.5784 19.902 10.0098 18.7353 9.32353 17.7941C8.63725 16.8529 7.97059 15.951 7.32353 15.0882C6.69608 14.2255 6.15196 13.3333 5.69118 12.4118C5.23039 11.4902 5 10.3529 5 9C5 7.03922 5.67647 5.38235 7.02941 4.02941C8.38235 2.67647 10.0392 2 12 2C13.9608 2 15.6176 2.67647 16.9706 4.02941C18.3235 5.38235 19 7.03922 19 9C19 10.3529 18.7745 11.4902 18.3235 12.4118C17.8725 13.3333 17.3235 14.2255 16.6765 15.0882C16.049 15.951 15.3873 16.8529 14.6912 17.7941C13.9951 18.7353 13.4216 19.902 12.9706 21.2941C12.8922 21.5098 12.7647 21.6814 12.5882 21.8088C12.4118 21.9363 12.2157 22 12 22ZM12 11.5C12.6863 11.5 13.2745 11.2549 13.7647 10.7647C14.2549 10.2745 14.5 9.68628 14.5 9C14.5 8.31373 14.2549 7.72549 13.7647 7.23529C13.2745 6.7451 12.6863 6.5 12 6.5C11.3137 6.5 10.7255 6.7451 10.2353 7.23529C9.7451 7.72549 9.5 8.31373 9.5 9C9.5 9.68628 9.7451 10.2745 10.2353 10.7647C10.7255 11.2549 11.3137 11.5 12 11.5Z" fill="#1C1B1F"/>
</svg>
