<svg width="15" height="19" viewBox="0 0 15 19" fill="none" xmlns="http://www.w3.org/2000/svg">
<path d="M7.5 19C5.41176 19 3.63971 18.2875 2.18382 16.8625C0.727941 15.4375 0 13.703 0 11.6591V3.45455C0 3.20985 0.0845588 3.00474 0.253676 2.8392C0.422794 2.67367 0.632353 2.59091 0.882353 2.59091C1.13235 2.59091 1.34191 2.67367 1.51103 2.8392C1.68015 3.00474 1.76471 3.20985 1.76471 3.45455V8.63636H3.52941V1.72727C3.52941 1.48258 3.61397 1.27746 3.78309 1.11193C3.95221 0.946402 4.16176 0.863636 4.41176 0.863636C4.66176 0.863636 4.87132 0.946402 5.04044 1.11193C5.20956 1.27746 5.29412 1.48258 5.29412 1.72727V8.63636H7.05882V0.863636C7.05882 0.618939 7.14338 0.413826 7.3125 0.248295C7.48162 0.0827652 7.69118 0 7.94118 0C8.19118 0 8.40074 0.0827652 8.56985 0.248295C8.73897 0.413826 8.82353 0.618939 8.82353 0.863636V8.63636H10.5882V2.59091C10.5882 2.34621 10.6728 2.1411 10.8419 1.97557C11.011 1.81004 11.2206 1.72727 11.4706 1.72727C11.7206 1.72727 11.9301 1.81004 12.0993 1.97557C12.2684 2.1411 12.3529 2.34621 12.3529 2.59091V7.55682C11.9265 7.85909 11.5993 8.24053 11.3713 8.70114C11.1434 9.16174 11.0294 9.64394 11.0294 10.1477V11.2273H9.92647C9 11.2273 8.21691 11.5403 7.57721 12.1665C6.9375 12.7926 6.61765 13.5591 6.61765 14.4659V15.5455H7.94118V14.4659C7.94118 13.9189 8.13235 13.4583 8.51471 13.0841C8.89706 12.7098 9.36765 12.5227 9.92647 12.5227H12.3529V10.1477C12.3529 9.60076 12.5441 9.14015 12.9265 8.76591C13.3088 8.39167 13.7794 8.20455 14.3382 8.20455H15V11.6591C15 13.703 14.2721 15.4375 12.8162 16.8625C11.3603 18.2875 9.58824 19 7.5 19Z" fill="#0E0E0E"/>
</svg>
