<svg width="85" height="26" viewBox="0 0 85 26" fill="none" xmlns="http://www.w3.org/2000/svg">
<g filter="url(#filter0_d_2261_1797)">
<rect x="4" width="77" height="18" rx="5" fill="#00A819" fill-opacity="0.12" shape-rendering="crispEdges"/>
<path d="M16.4167 10.75L19.3542 7.8125L18.7708 7.22917L16.4167 9.58333L15.2292 8.39583L14.6458 8.97917L16.4167 10.75ZM14.0833 12.75C13.8542 12.75 13.658 12.6684 13.4948 12.5052C13.3316 12.342 13.25 12.1458 13.25 11.9167V6.08333C13.25 5.85417 13.3316 5.65799 13.4948 5.49479C13.658 5.3316 13.8542 5.25 14.0833 5.25H19.9167C20.1458 5.25 20.342 5.3316 20.5052 5.49479C20.6684 5.65799 20.75 5.85417 20.75 6.08333V11.9167C20.75 12.1458 20.6684 12.342 20.5052 12.5052C20.342 12.6684 20.1458 12.75 19.9167 12.75H14.0833ZM14.0833 11.9167H19.9167V6.08333H14.0833V11.9167Z" fill="#FBF7F5"/>
<path d="M29.11 13.1C28.5633 13.1 28.04 13.0233 27.54 12.87C27.04 12.71 26.6433 12.5067 26.35 12.26L26.8 11.25C27.08 11.47 27.4267 11.6533 27.84 11.8C28.2533 11.9467 28.6767 12.02 29.11 12.02C29.4767 12.02 29.7733 11.98 30 11.9C30.2267 11.82 30.3933 11.7133 30.5 11.58C30.6067 11.44 30.66 11.2833 30.66 11.11C30.66 10.8967 30.5833 10.7267 30.43 10.6C30.2767 10.4667 30.0767 10.3633 29.83 10.29C29.59 10.21 29.32 10.1367 29.02 10.07C28.7267 10.0033 28.43 9.92667 28.13 9.84C27.8367 9.74667 27.5667 9.63 27.32 9.49C27.08 9.34333 26.8833 9.15 26.73 8.91C26.5767 8.67 26.5 8.36333 26.5 7.99C26.5 7.61 26.6 7.26333 26.8 6.95C27.0067 6.63 27.3167 6.37667 27.73 6.19C28.15 5.99667 28.68 5.9 29.32 5.9C29.74 5.9 30.1567 5.95333 30.57 6.06C30.9833 6.16667 31.3433 6.32 31.65 6.52L31.24 7.53C30.9267 7.34333 30.6033 7.20667 30.27 7.12C29.9367 7.02667 29.6167 6.98 29.31 6.98C28.95 6.98 28.6567 7.02333 28.43 7.11C28.21 7.19667 28.0467 7.31 27.94 7.45C27.84 7.59 27.79 7.75 27.79 7.93C27.79 8.14333 27.8633 8.31667 28.01 8.45C28.1633 8.57667 28.36 8.67667 28.6 8.75C28.8467 8.82333 29.12 8.89667 29.42 8.97C29.72 9.03667 30.0167 9.11333 30.31 9.2C30.61 9.28667 30.88 9.4 31.12 9.54C31.3667 9.68 31.5633 9.87 31.71 10.11C31.8633 10.35 31.94 10.6533 31.94 11.02C31.94 11.3933 31.8367 11.74 31.63 12.06C31.43 12.3733 31.12 12.6267 30.7 12.82C30.28 13.0067 29.75 13.1 29.11 13.1ZM35.6191 13.07C35.0257 13.07 34.5057 12.9533 34.0591 12.72C33.6191 12.48 33.2757 12.1533 33.0291 11.74C32.7891 11.3267 32.6691 10.8567 32.6691 10.33C32.6691 9.79667 32.7857 9.32667 33.0191 8.92C33.2591 8.50667 33.5857 8.18333 33.9991 7.95C34.4191 7.71667 34.8957 7.6 35.4291 7.6C35.9491 7.6 36.4124 7.71333 36.8191 7.94C37.2257 8.16667 37.5457 8.48667 37.7791 8.9C38.0124 9.31333 38.1291 9.8 38.1291 10.36C38.1291 10.4133 38.1257 10.4733 38.1191 10.54C38.1191 10.6067 38.1157 10.67 38.1091 10.73H33.6591V9.9H37.4491L36.9591 10.16C36.9657 9.85333 36.9024 9.58333 36.7691 9.35C36.6357 9.11667 36.4524 8.93333 36.2191 8.8C35.9924 8.66667 35.7291 8.6 35.4291 8.6C35.1224 8.6 34.8524 8.66667 34.6191 8.8C34.3924 8.93333 34.2124 9.12 34.0791 9.36C33.9524 9.59333 33.8891 9.87 33.8891 10.19V10.39C33.8891 10.71 33.9624 10.9933 34.1091 11.24C34.2557 11.4867 34.4624 11.6767 34.7291 11.81C34.9957 11.9433 35.3024 12.01 35.6491 12.01C35.9491 12.01 36.2191 11.9633 36.4591 11.87C36.6991 11.7767 36.9124 11.63 37.0991 11.43L37.7691 12.2C37.5291 12.48 37.2257 12.6967 36.8591 12.85C36.4991 12.9967 36.0857 13.07 35.6191 13.07ZM39.3298 13V5.58H40.5798V13H39.3298ZM44.7304 13.07C44.1371 13.07 43.6171 12.9533 43.1704 12.72C42.7304 12.48 42.3871 12.1533 42.1404 11.74C41.9004 11.3267 41.7804 10.8567 41.7804 10.33C41.7804 9.79667 41.8971 9.32667 42.1304 8.92C42.3704 8.50667 42.6971 8.18333 43.1104 7.95C43.5304 7.71667 44.0071 7.6 44.5404 7.6C45.0604 7.6 45.5237 7.71333 45.9304 7.94C46.3371 8.16667 46.6571 8.48667 46.8904 8.9C47.1237 9.31333 47.2404 9.8 47.2404 10.36C47.2404 10.4133 47.2371 10.4733 47.2304 10.54C47.2304 10.6067 47.2271 10.67 47.2204 10.73H42.7704V9.9H46.5604L46.0704 10.16C46.0771 9.85333 46.0137 9.58333 45.8804 9.35C45.7471 9.11667 45.5637 8.93333 45.3304 8.8C45.1037 8.66667 44.8404 8.6 44.5404 8.6C44.2337 8.6 43.9637 8.66667 43.7304 8.8C43.5037 8.93333 43.3237 9.12 43.1904 9.36C43.0637 9.59333 43.0004 9.87 43.0004 10.19V10.39C43.0004 10.71 43.0737 10.9933 43.2204 11.24C43.3671 11.4867 43.5737 11.6767 43.8404 11.81C44.1071 11.9433 44.4137 12.01 44.7604 12.01C45.0604 12.01 45.3304 11.9633 45.5704 11.87C45.8104 11.7767 46.0237 11.63 46.2104 11.43L46.8804 12.2C46.6404 12.48 46.3371 12.6967 45.9704 12.85C45.6104 12.9967 45.1971 13.07 44.7304 13.07ZM50.8911 13.07C50.3311 13.07 49.8311 12.9533 49.3911 12.72C48.9578 12.48 48.6178 12.1533 48.3711 11.74C48.1244 11.3267 48.0011 10.8567 48.0011 10.33C48.0011 9.79667 48.1244 9.32667 48.3711 8.92C48.6178 8.50667 48.9578 8.18333 49.3911 7.95C49.8311 7.71667 50.3311 7.6 50.8911 7.6C51.4111 7.6 51.8678 7.70667 52.2611 7.92C52.6611 8.12667 52.9644 8.43333 53.1711 8.84L52.2111 9.4C52.0511 9.14667 51.8544 8.96 51.6211 8.84C51.3944 8.72 51.1478 8.66 50.8811 8.66C50.5744 8.66 50.2978 8.72667 50.0511 8.86C49.8044 8.99333 49.6111 9.18667 49.4711 9.44C49.3311 9.68667 49.2611 9.98333 49.2611 10.33C49.2611 10.6767 49.3311 10.9767 49.4711 11.23C49.6111 11.4767 49.8044 11.6667 50.0511 11.8C50.2978 11.9333 50.5744 12 50.8811 12C51.1478 12 51.3944 11.94 51.6211 11.82C51.8544 11.7 52.0511 11.5133 52.2111 11.26L53.1711 11.82C52.9644 12.22 52.6611 12.53 52.2611 12.75C51.8678 12.9633 51.4111 13.07 50.8911 13.07ZM56.33 13.07C55.7433 13.07 55.29 12.92 54.97 12.62C54.65 12.3133 54.49 11.8633 54.49 11.27V6.48H55.74V11.24C55.74 11.4933 55.8033 11.69 55.93 11.83C56.0633 11.97 56.2467 12.04 56.48 12.04C56.76 12.04 56.9933 11.9667 57.18 11.82L57.53 12.71C57.3833 12.83 57.2033 12.92 56.99 12.98C56.7767 13.04 56.5567 13.07 56.33 13.07ZM53.61 8.7V7.7H57.17V8.7H53.61ZM60.8925 13.07C60.2992 13.07 59.7792 12.9533 59.3325 12.72C58.8925 12.48 58.5492 12.1533 58.3025 11.74C58.0625 11.3267 57.9425 10.8567 57.9425 10.33C57.9425 9.79667 58.0592 9.32667 58.2925 8.92C58.5325 8.50667 58.8592 8.18333 59.2725 7.95C59.6925 7.71667 60.1692 7.6 60.7025 7.6C61.2225 7.6 61.6858 7.71333 62.0925 7.94C62.4992 8.16667 62.8192 8.48667 63.0525 8.9C63.2858 9.31333 63.4025 9.8 63.4025 10.36C63.4025 10.4133 63.3992 10.4733 63.3925 10.54C63.3925 10.6067 63.3892 10.67 63.3825 10.73H58.9325V9.9H62.7225L62.2325 10.16C62.2392 9.85333 62.1758 9.58333 62.0425 9.35C61.9092 9.11667 61.7258 8.93333 61.4925 8.8C61.2658 8.66667 61.0025 8.6 60.7025 8.6C60.3958 8.6 60.1258 8.66667 59.8925 8.8C59.6658 8.93333 59.4858 9.12 59.3525 9.36C59.2258 9.59333 59.1625 9.87 59.1625 10.19V10.39C59.1625 10.71 59.2358 10.9933 59.3825 11.24C59.5292 11.4867 59.7358 11.6767 60.0025 11.81C60.2692 11.9433 60.5758 12.01 60.9225 12.01C61.2225 12.01 61.4925 11.9633 61.7325 11.87C61.9725 11.7767 62.1858 11.63 62.3725 11.43L63.0425 12.2C62.8025 12.48 62.4992 12.6967 62.1325 12.85C61.7725 12.9967 61.3592 13.07 60.8925 13.07ZM66.8632 13.07C66.3499 13.07 65.8865 12.9567 65.4732 12.73C65.0665 12.4967 64.7465 12.1767 64.5132 11.77C64.2799 11.3633 64.1632 10.8833 64.1632 10.33C64.1632 9.77667 64.2799 9.29667 64.5132 8.89C64.7465 8.48333 65.0665 8.16667 65.4732 7.94C65.8865 7.71333 66.3499 7.6 66.8632 7.6C67.3099 7.6 67.7099 7.7 68.0632 7.9C68.4165 8.09333 68.6965 8.39 68.9032 8.79C69.1099 9.19 69.2132 9.70333 69.2132 10.33C69.2132 10.95 69.1132 11.4633 68.9132 11.87C68.7132 12.27 68.4365 12.57 68.0832 12.77C67.7299 12.97 67.3232 13.07 66.8632 13.07ZM67.0132 12C67.3132 12 67.5799 11.9333 67.8132 11.8C68.0532 11.6667 68.2432 11.4733 68.3832 11.22C68.5299 10.9667 68.6032 10.67 68.6032 10.33C68.6032 9.98333 68.5299 9.68667 68.3832 9.44C68.2432 9.18667 68.0532 8.99333 67.8132 8.86C67.5799 8.72667 67.3132 8.66 67.0132 8.66C66.7132 8.66 66.4432 8.72667 66.2032 8.86C65.9699 8.99333 65.7799 9.18667 65.6332 9.44C65.4932 9.68667 65.4232 9.98333 65.4232 10.33C65.4232 10.67 65.4932 10.9667 65.6332 11.22C65.7799 11.4733 65.9699 11.6667 66.2032 11.8C66.4432 11.9333 66.7132 12 67.0132 12ZM68.6332 13V11.74L68.6832 10.32L68.5832 8.9V5.58H69.8232V13H68.6332Z" fill="#FBF7F5"/>
</g>
<defs>
<filter id="filter0_d_2261_1797" x="0" y="0" width="85" height="26" filterUnits="userSpaceOnUse" color-interpolation-filters="sRGB">
<feFlood flood-opacity="0" result="BackgroundImageFix"/>
<feColorMatrix in="SourceAlpha" type="matrix" values="0 0 0 0 0 0 0 0 0 0 0 0 0 0 0 0 0 0 127 0" result="hardAlpha"/>
<feOffset dy="4"/>
<feGaussianBlur stdDeviation="2"/>
<feComposite in2="hardAlpha" operator="out"/>
<feColorMatrix type="matrix" values="0 0 0 0 0 0 0 0 0 0 0 0 0 0 0 0 0 0 0.25 0"/>
<feBlend mode="normal" in2="BackgroundImageFix" result="effect1_dropShadow_2261_1797"/>
<feBlend mode="normal" in="BackgroundImageFix" in2="effect1_dropShadow_2261_1797" result="BackgroundImageFix"/>
<feBlend mode="normal" in="SourceGraphic" in2="BackgroundImageFix" result="shape"/>
</filter>
</defs>
</svg>
