<svg width="55" height="18" viewBox="0 0 55 18" fill="none" xmlns="http://www.w3.org/2000/svg">
<rect width="55" height="18" rx="5" fill="url(#paint0_linear_2027_1046)" fill-opacity="0.2"/>
<rect width="55" height="18" rx="5" fill="url(#paint1_linear_2027_1046)" fill-opacity="0.2"/>
<path d="M13.2083 13.5832C12.2222 13.5832 11.3854 13.2394 10.6979 12.5519C10.0104 11.8644 9.66663 11.0276 9.66663 10.0415V6.08317C9.66663 5.96511 9.70656 5.86616 9.78642 5.7863C9.86628 5.70643 9.96524 5.6665 10.0833 5.6665C10.2013 5.6665 10.3003 5.70643 10.3802 5.7863C10.46 5.86616 10.5 5.96511 10.5 6.08317V8.58317H11.3333V5.24984C11.3333 5.13178 11.3732 5.03282 11.4531 4.95296C11.5329 4.8731 11.6319 4.83317 11.75 4.83317C11.868 4.83317 11.967 4.8731 12.0468 4.95296C12.1267 5.03282 12.1666 5.13178 12.1666 5.24984V8.58317H13V4.83317C13 4.71511 13.0399 4.61616 13.1198 4.5363C13.1996 4.45643 13.2986 4.4165 13.4166 4.4165C13.5347 4.4165 13.6336 4.45643 13.7135 4.5363C13.7934 4.61616 13.8333 4.71511 13.8333 4.83317V8.58317H14.6666V5.6665C14.6666 5.54845 14.7066 5.44949 14.7864 5.36963C14.8663 5.28977 14.9652 5.24984 15.0833 5.24984C15.2013 5.24984 15.3003 5.28977 15.3802 5.36963C15.46 5.44949 15.5 5.54845 15.5 5.6665V8.06234C15.2986 8.20817 15.1441 8.3922 15.0364 8.61442C14.9288 8.83664 14.875 9.06928 14.875 9.31234V9.83317H14.3541C13.9166 9.83317 13.5468 9.98421 13.2448 10.2863C12.9427 10.5884 12.7916 10.9582 12.7916 11.3957V11.9165H13.4166V11.3957C13.4166 11.1318 13.5069 10.9096 13.6875 10.729C13.868 10.5484 14.0902 10.4582 14.3541 10.4582H15.5V9.31234C15.5 9.04845 15.5902 8.82623 15.7708 8.64567C15.9513 8.46511 16.1736 8.37484 16.4375 8.37484H16.75V10.0415C16.75 11.0276 16.4062 11.8644 15.7187 12.5519C15.0312 13.2394 14.1944 13.5832 13.2083 13.5832Z" fill="#FBF7F5"/>
<path d="M25.01 13L21.95 6H23.36L26.09 12.33H25.28L28.04 6H29.34L26.29 13H25.01ZM31.9583 13.07C31.4116 13.07 30.9249 12.9533 30.4983 12.72C30.0716 12.48 29.7349 12.1533 29.4883 11.74C29.2416 11.3267 29.1183 10.8567 29.1183 10.33C29.1183 9.79667 29.2416 9.32667 29.4883 8.92C29.7349 8.50667 30.0716 8.18333 30.4983 7.95C30.9249 7.71667 31.4116 7.6 31.9583 7.6C32.5116 7.6 33.0016 7.71667 33.4283 7.95C33.8616 8.18333 34.1983 8.50333 34.4383 8.91C34.6849 9.31667 34.8083 9.79 34.8083 10.33C34.8083 10.8567 34.6849 11.3267 34.4383 11.74C34.1983 12.1533 33.8616 12.48 33.4283 12.72C33.0016 12.9533 32.5116 13.07 31.9583 13.07ZM31.9583 12C32.2649 12 32.5383 11.9333 32.7783 11.8C33.0183 11.6667 33.2049 11.4733 33.3383 11.22C33.4783 10.9667 33.5483 10.67 33.5483 10.33C33.5483 9.98333 33.4783 9.68667 33.3383 9.44C33.2049 9.18667 33.0183 8.99333 32.7783 8.86C32.5383 8.72667 32.2683 8.66 31.9683 8.66C31.6616 8.66 31.3883 8.72667 31.1483 8.86C30.9149 8.99333 30.7283 9.18667 30.5883 9.44C30.4483 9.68667 30.3783 9.98333 30.3783 10.33C30.3783 10.67 30.4483 10.9667 30.5883 11.22C30.7283 11.4733 30.9149 11.6667 31.1483 11.8C31.3883 11.9333 31.6583 12 31.9583 12ZM38.0136 13.07C37.4269 13.07 36.9736 12.92 36.6536 12.62C36.3336 12.3133 36.1736 11.8633 36.1736 11.27V6.48H37.4236V11.24C37.4236 11.4933 37.4869 11.69 37.6136 11.83C37.7469 11.97 37.9303 12.04 38.1636 12.04C38.4436 12.04 38.6769 11.9667 38.8636 11.82L39.2136 12.71C39.0669 12.83 38.8869 12.92 38.6736 12.98C38.4603 13.04 38.2403 13.07 38.0136 13.07ZM35.2936 8.7V7.7H38.8536V8.7H35.2936ZM42.5761 13.07C41.9828 13.07 41.4628 12.9533 41.0161 12.72C40.5761 12.48 40.2328 12.1533 39.9861 11.74C39.7461 11.3267 39.6261 10.8567 39.6261 10.33C39.6261 9.79667 39.7428 9.32667 39.9761 8.92C40.2161 8.50667 40.5428 8.18333 40.9561 7.95C41.3761 7.71667 41.8528 7.6 42.3861 7.6C42.9061 7.6 43.3694 7.71333 43.7761 7.94C44.1828 8.16667 44.5028 8.48667 44.7361 8.9C44.9694 9.31333 45.0861 9.8 45.0861 10.36C45.0861 10.4133 45.0828 10.4733 45.0761 10.54C45.0761 10.6067 45.0728 10.67 45.0661 10.73H40.6161V9.9H44.4061L43.9161 10.16C43.9228 9.85333 43.8594 9.58333 43.7261 9.35C43.5928 9.11667 43.4094 8.93333 43.1761 8.8C42.9494 8.66667 42.6861 8.6 42.3861 8.6C42.0794 8.6 41.8094 8.66667 41.5761 8.8C41.3494 8.93333 41.1694 9.12 41.0361 9.36C40.9094 9.59333 40.8461 9.87 40.8461 10.19V10.39C40.8461 10.71 40.9194 10.9933 41.0661 11.24C41.2128 11.4867 41.4194 11.6767 41.6861 11.81C41.9528 11.9433 42.2594 12.01 42.6061 12.01C42.9061 12.01 43.1761 11.9633 43.4161 11.87C43.6561 11.7767 43.8694 11.63 44.0561 11.43L44.7261 12.2C44.4861 12.48 44.1828 12.6967 43.8161 12.85C43.4561 12.9967 43.0428 13.07 42.5761 13.07Z" fill="#FBF7F5"/>
<defs>
<linearGradient id="paint0_linear_2027_1046" x1="57" y1="1.5" x2="-0.0170335" y2="17.9409" gradientUnits="userSpaceOnUse">
<stop offset="0.168244" stop-color="#A6AF6B" stop-opacity="0.42"/>
<stop offset="0.739484" stop-color="#EE7B67" stop-opacity="0.58"/>
</linearGradient>
<linearGradient id="paint1_linear_2027_1046" x1="27.5" y1="0" x2="27.5" y2="18" gradientUnits="userSpaceOnUse">
<stop stop-color="white" stop-opacity="0.03"/>
<stop offset="1"/>
</linearGradient>
</defs>
</svg>
