<svg width="65" height="18" viewBox="0 0 65 18" fill="none" xmlns="http://www.w3.org/2000/svg">
<rect width="65" height="18" rx="5" fill="url(#paint0_linear_4002_1561)" fill-opacity="0.2"/>
<path d="M11 11C10.45 11 9.97917 10.8042 9.5875 10.4125C9.19583 10.0208 9 9.55 9 9C9 8.45 9.19583 7.97917 9.5875 7.5875C9.97917 7.19583 10.45 7 11 7C11.55 7 12.0208 7.19583 12.4125 7.5875C12.8042 7.97917 13 8.45 13 9C13 9.55 12.8042 10.0208 12.4125 10.4125C12.0208 10.8042 11.55 11 11 11ZM17 11C16.45 11 15.9792 10.8042 15.5875 10.4125C15.1958 10.0208 15 9.55 15 9C15 8.45 15.1958 7.97917 15.5875 7.5875C15.9792 7.19583 16.45 7 17 7C17.55 7 18.0208 7.19583 18.4125 7.5875C18.8042 7.97917 19 8.45 19 9C19 9.55 18.8042 10.0208 18.4125 10.4125C18.0208 10.8042 17.55 11 17 11ZM23 11C22.45 11 21.9792 10.8042 21.5875 10.4125C21.1958 10.0208 21 9.55 21 9C21 8.45 21.1958 7.97917 21.5875 7.5875C21.9792 7.19583 22.45 7 23 7C23.55 7 24.0208 7.19583 24.4125 7.5875C24.8042 7.97917 25 8.45 25 9C25 9.55 24.8042 10.0208 24.4125 10.4125C24.0208 10.8042 23.55 11 23 11Z" fill="#FBF7F5"/>
<path d="M31.11 13.1C30.5633 13.1 30.04 13.0233 29.54 12.87C29.04 12.71 28.6433 12.5067 28.35 12.26L28.8 11.25C29.08 11.47 29.4267 11.6533 29.84 11.8C30.2533 11.9467 30.6767 12.02 31.11 12.02C31.4767 12.02 31.7733 11.98 32 11.9C32.2267 11.82 32.3933 11.7133 32.5 11.58C32.6067 11.44 32.66 11.2833 32.66 11.11C32.66 10.8967 32.5833 10.7267 32.43 10.6C32.2767 10.4667 32.0767 10.3633 31.83 10.29C31.59 10.21 31.32 10.1367 31.02 10.07C30.7267 10.0033 30.43 9.92667 30.13 9.84C29.8367 9.74667 29.5667 9.63 29.32 9.49C29.08 9.34333 28.8833 9.15 28.73 8.91C28.5767 8.67 28.5 8.36333 28.5 7.99C28.5 7.61 28.6 7.26333 28.8 6.95C29.0067 6.63 29.3167 6.37667 29.73 6.19C30.15 5.99667 30.68 5.9 31.32 5.9C31.74 5.9 32.1567 5.95333 32.57 6.06C32.9833 6.16667 33.3433 6.32 33.65 6.52L33.24 7.53C32.9267 7.34333 32.6033 7.20667 32.27 7.12C31.9367 7.02667 31.6167 6.98 31.31 6.98C30.95 6.98 30.6567 7.02333 30.43 7.11C30.21 7.19667 30.0467 7.31 29.94 7.45C29.84 7.59 29.79 7.75 29.79 7.93C29.79 8.14333 29.8633 8.31667 30.01 8.45C30.1633 8.57667 30.36 8.67667 30.6 8.75C30.8467 8.82333 31.12 8.89667 31.42 8.97C31.72 9.03667 32.0167 9.11333 32.31 9.2C32.61 9.28667 32.88 9.4 33.12 9.54C33.3667 9.68 33.5633 9.87 33.71 10.11C33.8633 10.35 33.94 10.6533 33.94 11.02C33.94 11.3933 33.8367 11.74 33.63 12.06C33.43 12.3733 33.12 12.6267 32.7 12.82C32.28 13.0067 31.75 13.1 31.11 13.1ZM37.5591 13.07C36.9991 13.07 36.4991 12.9533 36.0591 12.72C35.6257 12.48 35.2857 12.1533 35.0391 11.74C34.7924 11.3267 34.6691 10.8567 34.6691 10.33C34.6691 9.79667 34.7924 9.32667 35.0391 8.92C35.2857 8.50667 35.6257 8.18333 36.0591 7.95C36.4991 7.71667 36.9991 7.6 37.5591 7.6C38.0791 7.6 38.5357 7.70667 38.9291 7.92C39.3291 8.12667 39.6324 8.43333 39.8391 8.84L38.8791 9.4C38.7191 9.14667 38.5224 8.96 38.2891 8.84C38.0624 8.72 37.8157 8.66 37.5491 8.66C37.2424 8.66 36.9657 8.72667 36.7191 8.86C36.4724 8.99333 36.2791 9.18667 36.1391 9.44C35.9991 9.68667 35.9291 9.98333 35.9291 10.33C35.9291 10.6767 35.9991 10.9767 36.1391 11.23C36.2791 11.4767 36.4724 11.6667 36.7191 11.8C36.9657 11.9333 37.2424 12 37.5491 12C37.8157 12 38.0624 11.94 38.2891 11.82C38.5224 11.7 38.7191 11.5133 38.8791 11.26L39.8391 11.82C39.6324 12.22 39.3291 12.53 38.9291 12.75C38.5357 12.9633 38.0791 13.07 37.5591 13.07ZM44.2096 13V11.92L44.1396 11.69V9.8C44.1396 9.43333 44.0296 9.15 43.8096 8.95C43.5896 8.74333 43.2563 8.64 42.8096 8.64C42.5096 8.64 42.2129 8.68667 41.9196 8.78C41.6329 8.87333 41.3896 9.00333 41.1896 9.17L40.6996 8.26C40.9863 8.04 41.3263 7.87667 41.7196 7.77C42.1196 7.65667 42.5329 7.6 42.9596 7.6C43.7329 7.6 44.3296 7.78667 44.7496 8.16C45.1763 8.52667 45.3896 9.09667 45.3896 9.87V13H44.2096ZM42.5296 13.07C42.1296 13.07 41.7796 13.0033 41.4796 12.87C41.1796 12.73 40.9463 12.54 40.7796 12.3C40.6196 12.0533 40.5396 11.7767 40.5396 11.47C40.5396 11.17 40.6096 10.9 40.7496 10.66C40.8963 10.42 41.1329 10.23 41.4596 10.09C41.7863 9.95 42.2196 9.88 42.7596 9.88H44.3096V10.71H42.8496C42.4229 10.71 42.1363 10.78 41.9896 10.92C41.8429 11.0533 41.7696 11.22 41.7696 11.42C41.7696 11.6467 41.8596 11.8267 42.0396 11.96C42.2196 12.0933 42.4696 12.16 42.7896 12.16C43.0963 12.16 43.3696 12.09 43.6096 11.95C43.8563 11.81 44.0329 11.6033 44.1396 11.33L44.3496 12.08C44.2296 12.3933 44.0129 12.6367 43.6996 12.81C43.3929 12.9833 43.0029 13.07 42.5296 13.07ZM50.0238 7.6C50.4505 7.6 50.8305 7.68333 51.1638 7.85C51.5038 8.01667 51.7705 8.27333 51.9638 8.62C52.1572 8.96 52.2538 9.4 52.2538 9.94V13H51.0038V10.1C51.0038 9.62667 50.8905 9.27333 50.6638 9.04C50.4438 8.80667 50.1338 8.69 49.7338 8.69C49.4405 8.69 49.1805 8.75 48.9538 8.87C48.7272 8.99 48.5505 9.17 48.4238 9.41C48.3038 9.64333 48.2438 9.94 48.2438 10.3V13H46.9938V7.66H48.1838V9.1L47.9738 8.66C48.1605 8.32 48.4305 8.06 48.7838 7.88C49.1438 7.69333 49.5572 7.6 50.0238 7.6Z" fill="#FBF7F5"/>
<defs>
<linearGradient id="paint0_linear_4002_1561" x1="32.5" y1="0" x2="32.5" y2="18" gradientUnits="userSpaceOnUse">
<stop stop-color="white" stop-opacity="0.03"/>
<stop offset="1"/>
</linearGradient>
</defs>
</svg>
