<svg width="87" height="130" viewBox="0 0 87 130" fill="none" xmlns="http://www.w3.org/2000/svg">
<path d="M49.0154 112.214C42.9899 105.022 36.0812 94.0033 32.5489 78.7064C29.013 63.394 30.359 47.4846 32.5512 35.4773C33.6498 29.4603 34.967 24.3904 36.0108 20.8211C36.5329 19.0358 36.9873 17.6242 37.3124 16.6549C37.4749 16.1703 37.6052 15.796 37.6956 15.541C37.7408 15.4134 37.7761 15.3155 37.8004 15.2486C37.8126 15.2151 37.8221 15.1892 37.8287 15.1713C37.832 15.1624 37.8348 15.1555 37.8366 15.1505C37.8375 15.148 37.8381 15.146 37.8387 15.1445L37.8396 15.1423C37.841 15.1423 37.8782 15.1588 39.0292 15.6815L37.84 15.1415C38.1556 14.2944 39.0336 13.8901 39.8009 14.2386C40.5681 14.5872 40.9341 15.5562 40.6185 16.4033L40.6177 16.4064C40.6166 16.4093 40.6146 16.4142 40.6121 16.4209C40.6071 16.4346 40.5992 16.4562 40.5886 16.4852C40.5675 16.5434 40.5355 16.6322 40.4936 16.7505C40.4096 16.9872 40.2859 17.3424 40.13 17.807C39.8183 18.7363 39.378 20.1036 38.8701 21.8403C37.8539 25.3153 36.5684 30.262 35.4965 36.1328C33.3479 47.9014 32.0816 63.2543 35.4603 77.8866C38.8427 92.5345 45.4547 103.079 51.2212 109.962C54.1045 113.404 56.7729 115.926 58.7123 117.582C59.6816 118.409 60.4677 119.02 61.0062 119.42C61.2754 119.62 61.4827 119.767 61.6197 119.863C61.6882 119.911 61.7393 119.945 61.7718 119.967L61.8131 119.995C62.5261 120.462 62.7611 121.479 62.3381 122.267C61.9148 123.055 60.9931 123.315 60.2794 122.848L61.0009 121.505C60.3155 122.78 60.2807 122.844 60.2783 122.846L60.2764 122.846C60.2751 122.845 60.2735 122.843 60.2716 122.842C60.2678 122.84 60.2627 122.836 60.2564 122.832C60.2438 122.824 60.2262 122.812 60.2042 122.797C60.1601 122.767 60.0973 122.725 60.0169 122.669C59.8557 122.556 59.6235 122.391 59.3288 122.173C58.7397 121.735 57.8994 121.082 56.8739 120.206C54.8234 118.455 52.028 115.811 49.0154 112.214Z" fill="url(#paint0_linear_2361_1493)"/>
<path d="M74.701 110.482C68.1513 116.441 60.1202 117.625 56.763 113.127C53.4058 108.629 55.9938 100.152 62.5435 94.1929C69.0932 88.2342 84.7267 83.2906 86.6806 85.9085C88.6345 88.5264 81.2506 104.523 74.701 110.482Z" fill="url(#paint1_linear_2361_1493)"/>
<path d="M35.3996 108.893C43.8864 108.877 50.7738 113.588 50.7831 119.417C50.7923 125.245 43.9199 129.984 35.4331 130C26.9463 130.016 12.0223 122.884 12.017 119.492C12.0116 116.1 26.9128 108.909 35.3996 108.893Z" fill="url(#paint2_linear_2361_1493)"/>
<path d="M57.6202 91.4714C50.9138 95.6321 43.6161 95.3485 41.3204 90.8379C39.0247 86.3273 42.6003 79.2979 49.3067 75.1371C56.0131 70.9764 70.6179 69.2075 71.954 71.8326C73.2901 74.4578 64.3266 87.3107 57.6202 91.4714Z" fill="url(#paint3_linear_2361_1493)"/>
<path d="M22.1741 80.9454C29.7955 82.0994 35.4577 87.1902 34.821 92.3162C34.1843 97.4422 27.4898 100.662 19.8684 99.5082C12.247 98.3543 -0.362568 90.0286 0.00798697 87.0453C0.378542 84.062 14.5527 79.7915 22.1741 80.9454Z" fill="url(#paint4_linear_2361_1493)"/>
<path d="M48.1853 70.8403C42.131 73.2764 36.1168 71.8997 34.7521 67.7655C33.3875 63.6313 37.1891 58.305 43.2434 55.869C49.2977 53.4329 61.6126 54.232 62.4069 56.6381C63.2011 59.0442 54.2396 68.4043 48.1853 70.8403Z" fill="url(#paint5_linear_2361_1493)"/>
<path d="M22.1675 56.5631C28.0152 59.5517 31.3985 65.2115 29.7243 69.2047C28.0501 73.1978 21.9524 74.0122 16.1047 71.0236C10.2571 68.035 2.03889 57.8774 3.01328 55.5534C3.98766 53.2294 16.3199 53.5745 22.1675 56.5631Z" fill="url(#paint6_linear_2361_1493)"/>
<path d="M47.0773 49.6374C41.8863 51.7643 36.554 50.1442 35.1674 46.0189C33.7808 41.8936 36.8649 36.8252 42.056 34.6983C47.247 32.5714 58.0721 33.9028 58.8791 36.3037C59.6861 38.7047 52.2684 47.5105 47.0773 49.6374Z" fill="url(#paint7_linear_2361_1493)"/>
<path d="M25.6122 33.7851C30.1831 37.2351 32.0653 42.9766 29.816 46.6091C27.5668 50.2417 22.038 50.3896 17.4671 46.9396C12.8961 43.4896 7.62785 32.9643 8.93689 30.8502C10.2459 28.7361 21.0412 30.3351 25.6122 33.7851Z" fill="url(#paint8_linear_2361_1493)"/>
<path d="M47.3671 20.8381C45.3913 27.0447 39.6159 30.4566 34.4674 28.4587C29.319 26.4609 26.747 19.8099 28.7228 13.6033C30.6986 7.39671 40.4961 -1.05449 43.4925 0.108249C46.4889 1.27098 49.3429 14.6315 47.3671 20.8381Z" fill="url(#paint9_linear_2361_1493)"/>
<defs>
<linearGradient id="paint0_linear_2361_1493" x1="43.5" y1="0" x2="43.5" y2="130" gradientUnits="userSpaceOnUse">
<stop stop-color="#FFFBF3"/>
<stop offset="1" stop-color="#D7992E"/>
</linearGradient>
<linearGradient id="paint1_linear_2361_1493" x1="43.5" y1="0" x2="43.5" y2="130" gradientUnits="userSpaceOnUse">
<stop stop-color="#FFFBF3"/>
<stop offset="1" stop-color="#D7992E"/>
</linearGradient>
<linearGradient id="paint2_linear_2361_1493" x1="43.5" y1="0" x2="43.5" y2="130" gradientUnits="userSpaceOnUse">
<stop stop-color="#FFFBF3"/>
<stop offset="1" stop-color="#D7992E"/>
</linearGradient>
<linearGradient id="paint3_linear_2361_1493" x1="43.5" y1="0" x2="43.5" y2="130" gradientUnits="userSpaceOnUse">
<stop stop-color="#FFFBF3"/>
<stop offset="1" stop-color="#D7992E"/>
</linearGradient>
<linearGradient id="paint4_linear_2361_1493" x1="43.5" y1="0" x2="43.5" y2="130" gradientUnits="userSpaceOnUse">
<stop stop-color="#FFFBF3"/>
<stop offset="1" stop-color="#D7992E"/>
</linearGradient>
<linearGradient id="paint5_linear_2361_1493" x1="43.5" y1="0" x2="43.5" y2="130" gradientUnits="userSpaceOnUse">
<stop stop-color="#FFFBF3"/>
<stop offset="1" stop-color="#D7992E"/>
</linearGradient>
<linearGradient id="paint6_linear_2361_1493" x1="43.5" y1="0" x2="43.5" y2="130" gradientUnits="userSpaceOnUse">
<stop stop-color="#FFFBF3"/>
<stop offset="1" stop-color="#D7992E"/>
</linearGradient>
<linearGradient id="paint7_linear_2361_1493" x1="43.5" y1="0" x2="43.5" y2="130" gradientUnits="userSpaceOnUse">
<stop stop-color="#FFFBF3"/>
<stop offset="1" stop-color="#D7992E"/>
</linearGradient>
<linearGradient id="paint8_linear_2361_1493" x1="43.5" y1="0" x2="43.5" y2="130" gradientUnits="userSpaceOnUse">
<stop stop-color="#FFFBF3"/>
<stop offset="1" stop-color="#D7992E"/>
</linearGradient>
<linearGradient id="paint9_linear_2361_1493" x1="43.5" y1="0" x2="43.5" y2="130" gradientUnits="userSpaceOnUse">
<stop stop-color="#FFFBF3"/>
<stop offset="1" stop-color="#D7992E"/>
</linearGradient>
</defs>
</svg>
