<svg width="237" height="354" viewBox="0 0 237 354" fill="none" xmlns="http://www.w3.org/2000/svg">
<path d="M133.525 305.568C117.11 285.982 98.29 255.978 88.6676 214.324C79.0355 172.627 82.702 129.304 88.6741 96.6074C91.6668 80.2226 95.2549 66.4171 98.0983 56.6974C99.5205 51.8361 100.758 47.992 101.644 45.3527C102.087 44.0331 102.442 43.0138 102.688 42.3193C102.811 41.972 102.907 41.7053 102.974 41.523C103.007 41.4319 103.033 41.3614 103.051 41.3126C103.06 41.2884 103.067 41.2695 103.072 41.2559C103.075 41.2493 103.076 41.2437 103.078 41.2396L103.08 41.2338C103.084 41.2336 103.185 41.2785 106.321 42.7019L103.081 41.2316C103.941 38.9247 106.333 37.8239 108.423 38.7729C110.513 39.722 111.51 42.3608 110.65 44.6675L110.648 44.6758C110.645 44.6837 110.64 44.697 110.633 44.7155C110.619 44.7527 110.598 44.8115 110.569 44.8905C110.511 45.0489 110.424 45.2908 110.31 45.6128C110.081 46.2576 109.744 47.2246 109.32 48.4898C108.471 51.0205 107.271 54.7436 105.887 59.4729C103.119 68.9356 99.6174 82.4058 96.6975 98.3925C90.8441 130.439 87.3946 172.246 96.5989 212.091C105.813 251.978 123.825 280.691 139.534 299.435C147.388 308.807 154.657 315.675 159.94 320.184C162.581 322.438 164.722 324.101 166.189 325.19C166.923 325.735 167.487 326.136 167.861 326.396C168.047 326.526 168.187 326.621 168.275 326.68L168.387 326.755C170.33 328.028 170.97 330.798 169.818 332.942C168.665 335.088 166.154 335.796 164.21 334.523L166.175 330.867C164.308 334.341 164.213 334.513 164.206 334.52L164.201 334.518C164.198 334.515 164.193 334.512 164.188 334.509C164.178 334.502 164.164 334.493 164.147 334.482C164.112 334.459 164.065 334.427 164.004 334.386C163.884 334.305 163.713 334.189 163.494 334.036C163.055 333.73 162.423 333.281 161.62 332.685C160.015 331.493 157.726 329.715 154.932 327.33C149.347 322.562 141.731 315.361 133.525 305.568Z" fill="url(#paint0_linear_2361_1493)"/>
<path d="M203.496 300.851C185.654 317.077 163.776 320.302 154.63 308.053C145.485 295.804 152.535 272.72 170.377 256.494C188.219 240.268 230.807 226.807 236.13 233.935C241.453 241.064 221.338 284.625 203.496 300.851Z" fill="url(#paint1_linear_2361_1493)"/>
<path d="M96.4333 296.524C119.553 296.479 138.315 309.309 138.34 325.181C138.365 341.053 119.644 353.955 96.5246 354C73.4053 354.045 32.7505 334.622 32.7359 325.385C32.7212 316.148 73.3141 296.569 96.4333 296.524Z" fill="url(#paint2_linear_2361_1493)"/>
<path d="M156.965 249.084C138.696 260.414 118.816 259.641 112.562 247.359C106.309 235.076 116.049 215.934 134.318 204.604C152.587 193.274 192.373 188.457 196.013 195.606C199.652 202.754 175.235 237.754 156.965 249.084Z" fill="url(#paint3_linear_2361_1493)"/>
<path d="M60.4052 220.421C81.167 223.563 96.5916 237.426 94.8572 251.384C93.1227 265.343 74.886 274.111 54.1243 270.968C33.3625 267.826 -0.987686 245.155 0.0217576 237.031C1.0312 228.907 39.6435 217.278 60.4052 220.421Z" fill="url(#paint4_linear_2361_1493)"/>
<path d="M131.263 192.904C114.771 199.537 98.3871 195.788 94.6696 184.531C90.9521 173.273 101.308 158.769 117.801 152.136C134.294 145.502 167.841 147.678 170.005 154.23C172.168 160.782 147.756 186.27 131.263 192.904Z" fill="url(#paint5_linear_2361_1493)"/>
<path d="M60.3875 154.026C76.3173 162.164 85.5338 177.576 80.9731 188.45C76.4123 199.323 59.8014 201.541 43.8715 193.403C27.9416 185.264 5.55423 157.605 8.20858 151.276C10.8629 144.948 44.4576 145.888 60.3875 154.026Z" fill="url(#paint6_linear_2361_1493)"/>
<path d="M128.245 135.166C114.104 140.958 99.5783 136.547 95.8009 125.313C92.0236 114.079 100.425 100.278 114.566 94.4861C128.707 88.6945 158.196 92.32 160.395 98.8579C162.593 105.396 142.386 129.375 128.245 135.166Z" fill="url(#paint7_linear_2361_1493)"/>
<path d="M69.7711 91.9994C82.223 101.394 87.3502 117.029 81.223 126.92C75.0958 136.812 60.0346 137.215 47.5827 127.82C35.1308 118.426 20.7793 89.7644 24.3453 84.0075C27.9113 78.2506 57.3193 82.6048 69.7711 91.9994Z" fill="url(#paint8_linear_2361_1493)"/>
<path d="M129.034 56.7437C123.652 73.6448 107.919 82.9356 93.8941 77.4953C79.8689 72.0551 72.8625 53.9439 78.2448 37.0428C83.6272 20.1418 110.317 -2.87145 118.48 0.294771C126.642 3.46099 134.417 39.8427 129.034 56.7437Z" fill="url(#paint9_linear_2361_1493)"/>
<defs>
<linearGradient id="paint0_linear_2361_1493" x1="118.5" y1="0" x2="118.5" y2="354" gradientUnits="userSpaceOnUse">
<stop stop-color="#D9D9D9"/>
<stop offset="1" stop-color="#2B2B2B"/>
</linearGradient>
<linearGradient id="paint1_linear_2361_1493" x1="118.5" y1="0" x2="118.5" y2="354" gradientUnits="userSpaceOnUse">
<stop stop-color="#D9D9D9"/>
<stop offset="1" stop-color="#2B2B2B"/>
</linearGradient>
<linearGradient id="paint2_linear_2361_1493" x1="118.5" y1="0" x2="118.5" y2="354" gradientUnits="userSpaceOnUse">
<stop stop-color="#D9D9D9"/>
<stop offset="1" stop-color="#2B2B2B"/>
</linearGradient>
<linearGradient id="paint3_linear_2361_1493" x1="118.5" y1="0" x2="118.5" y2="354" gradientUnits="userSpaceOnUse">
<stop stop-color="#D9D9D9"/>
<stop offset="1" stop-color="#2B2B2B"/>
</linearGradient>
<linearGradient id="paint4_linear_2361_1493" x1="118.5" y1="0" x2="118.5" y2="354" gradientUnits="userSpaceOnUse">
<stop stop-color="#D9D9D9"/>
<stop offset="1" stop-color="#2B2B2B"/>
</linearGradient>
<linearGradient id="paint5_linear_2361_1493" x1="118.5" y1="0" x2="118.5" y2="354" gradientUnits="userSpaceOnUse">
<stop stop-color="#D9D9D9"/>
<stop offset="1" stop-color="#2B2B2B"/>
</linearGradient>
<linearGradient id="paint6_linear_2361_1493" x1="118.5" y1="0" x2="118.5" y2="354" gradientUnits="userSpaceOnUse">
<stop stop-color="#D9D9D9"/>
<stop offset="1" stop-color="#2B2B2B"/>
</linearGradient>
<linearGradient id="paint7_linear_2361_1493" x1="118.5" y1="0" x2="118.5" y2="354" gradientUnits="userSpaceOnUse">
<stop stop-color="#D9D9D9"/>
<stop offset="1" stop-color="#2B2B2B"/>
</linearGradient>
<linearGradient id="paint8_linear_2361_1493" x1="118.5" y1="0" x2="118.5" y2="354" gradientUnits="userSpaceOnUse">
<stop stop-color="#D9D9D9"/>
<stop offset="1" stop-color="#2B2B2B"/>
</linearGradient>
<linearGradient id="paint9_linear_2361_1493" x1="118.5" y1="0" x2="118.5" y2="354" gradientUnits="userSpaceOnUse">
<stop stop-color="#D9D9D9"/>
<stop offset="1" stop-color="#2B2B2B"/>
</linearGradient>
</defs>
</svg>
