<svg width="87" height="130" viewBox="0 0 87 130" fill="none" xmlns="http://www.w3.org/2000/svg">
<path d="M37.9846 112.214C44.0101 105.022 50.9188 94.0033 54.4511 78.7064C57.987 63.394 56.641 47.4846 54.4488 35.4773C53.3502 29.4603 52.033 24.3904 50.9892 20.8211C50.4671 19.0358 50.0127 17.6242 49.6876 16.6549C49.5251 16.1703 49.3948 15.796 49.3044 15.541C49.2592 15.4134 49.2239 15.3155 49.1996 15.2486C49.1874 15.2151 49.1779 15.1892 49.1713 15.1713C49.168 15.1624 49.1652 15.1555 49.1634 15.1505C49.1625 15.148 49.1619 15.146 49.1613 15.1445L49.1604 15.1423C49.159 15.1423 49.1218 15.1588 47.9708 15.6815L49.16 15.1415C48.8444 14.2944 47.9664 13.8901 47.1991 14.2386C46.4319 14.5872 46.0659 15.5562 46.3815 16.4033L46.3823 16.4064C46.3834 16.4093 46.3854 16.4142 46.3879 16.4209C46.3929 16.4346 46.4008 16.4562 46.4114 16.4852C46.4325 16.5434 46.4645 16.6322 46.5064 16.7505C46.5904 16.9872 46.7141 17.3424 46.87 17.807C47.1817 18.7363 47.622 20.1036 48.1299 21.8403C49.1461 25.3153 50.4316 30.262 51.5035 36.1328C53.6521 47.9014 54.9184 63.2543 51.5397 77.8866C48.1573 92.5345 41.5453 103.079 35.7788 109.962C32.8955 113.404 30.2271 115.926 28.2877 117.582C27.3184 118.409 26.5323 119.02 25.9938 119.42C25.7246 119.62 25.5173 119.767 25.3803 119.863C25.3118 119.911 25.2607 119.945 25.2282 119.967L25.1869 119.995C24.4739 120.462 24.2389 121.479 24.6619 122.267C25.0852 123.055 26.0069 123.315 26.7206 122.848L25.9991 121.505C26.6845 122.78 26.7193 122.844 26.7217 122.846L26.7236 122.846C26.7249 122.845 26.7265 122.843 26.7284 122.842C26.7322 122.84 26.7373 122.836 26.7436 122.832C26.7562 122.824 26.7738 122.812 26.7958 122.797C26.8399 122.767 26.9027 122.725 26.9831 122.669C27.1443 122.556 27.3765 122.391 27.6712 122.173C28.2603 121.735 29.1006 121.082 30.1261 120.206C32.1766 118.455 34.972 115.811 37.9846 112.214Z" fill="url(#paint0_linear_2410_953)"/>
<path d="M12.299 110.482C18.8487 116.441 26.8798 117.625 30.237 113.127C33.5942 108.629 31.0062 100.152 24.4565 94.1929C17.9068 88.2342 2.27328 83.2906 0.319406 85.9085C-1.63447 88.5264 5.74937 104.523 12.299 110.482Z" fill="url(#paint1_linear_2410_953)"/>
<path d="M51.6004 108.893C43.1136 108.877 36.2262 113.588 36.2169 119.417C36.2077 125.245 43.0801 129.984 51.5669 130C60.0537 130.016 74.9777 122.884 74.983 119.492C74.9884 116.1 60.0872 108.909 51.6004 108.893Z" fill="url(#paint2_linear_2410_953)"/>
<path d="M29.3798 91.4714C36.0862 95.6321 43.3839 95.3485 45.6796 90.8379C47.9753 86.3273 44.3997 79.2979 37.6933 75.1371C30.9869 70.9764 16.3821 69.2075 15.046 71.8326C13.7099 74.4578 22.6734 87.3107 29.3798 91.4714Z" fill="url(#paint3_linear_2410_953)"/>
<path d="M64.8259 80.9454C57.2045 82.0994 51.5423 87.1902 52.179 92.3162C52.8157 97.4422 59.5102 100.662 67.1316 99.5082C74.753 98.3543 87.3626 90.0286 86.992 87.0453C86.6215 84.062 72.4473 79.7915 64.8259 80.9454Z" fill="url(#paint4_linear_2410_953)"/>
<path d="M38.8147 70.8403C44.869 73.2764 50.8832 71.8997 52.2479 67.7655C53.6125 63.6313 49.8109 58.305 43.7566 55.869C37.7023 53.4329 25.3874 54.232 24.5931 56.6381C23.7989 59.0442 32.7604 68.4043 38.8147 70.8403Z" fill="url(#paint5_linear_2410_953)"/>
<path d="M64.8325 56.5631C58.9848 59.5517 55.6015 65.2115 57.2757 69.2047C58.9499 73.1978 65.0476 74.0122 70.8953 71.0236C76.7429 68.035 84.9611 57.8774 83.9867 55.5534C83.0123 53.2294 70.6801 53.5745 64.8325 56.5631Z" fill="url(#paint6_linear_2410_953)"/>
<path d="M39.9227 49.6374C45.1137 51.7643 50.446 50.1442 51.8326 46.0189C53.2192 41.8936 50.1351 36.8252 44.944 34.6983C39.753 32.5714 28.9279 33.9028 28.1209 36.3037C27.3139 38.7047 34.7316 47.5105 39.9227 49.6374Z" fill="url(#paint7_linear_2410_953)"/>
<path d="M61.3878 33.7851C56.8169 37.2351 54.9347 42.9766 57.184 46.6091C59.4332 50.2417 64.962 50.3896 69.5329 46.9396C74.1039 43.4896 79.3722 32.9643 78.0631 30.8502C76.7541 28.7361 65.9588 30.3351 61.3878 33.7851Z" fill="url(#paint8_linear_2410_953)"/>
<path d="M39.6329 20.8381C41.6087 27.0447 47.3841 30.4566 52.5326 28.4587C57.681 26.4609 60.253 19.8099 58.2772 13.6033C56.3014 7.39671 46.5039 -1.05449 43.5075 0.108249C40.5111 1.27098 37.6571 14.6315 39.6329 20.8381Z" fill="url(#paint9_linear_2410_953)"/>
<defs>
<linearGradient id="paint0_linear_2410_953" x1="43.5" y1="0" x2="43.5" y2="130" gradientUnits="userSpaceOnUse">
<stop stop-color="#FFFBF3"/>
<stop offset="1" stop-color="#D7992E"/>
</linearGradient>
<linearGradient id="paint1_linear_2410_953" x1="43.5" y1="0" x2="43.5" y2="130" gradientUnits="userSpaceOnUse">
<stop stop-color="#FFFBF3"/>
<stop offset="1" stop-color="#D7992E"/>
</linearGradient>
<linearGradient id="paint2_linear_2410_953" x1="43.5" y1="0" x2="43.5" y2="130" gradientUnits="userSpaceOnUse">
<stop stop-color="#FFFBF3"/>
<stop offset="1" stop-color="#D7992E"/>
</linearGradient>
<linearGradient id="paint3_linear_2410_953" x1="43.5" y1="0" x2="43.5" y2="130" gradientUnits="userSpaceOnUse">
<stop stop-color="#FFFBF3"/>
<stop offset="1" stop-color="#D7992E"/>
</linearGradient>
<linearGradient id="paint4_linear_2410_953" x1="43.5" y1="0" x2="43.5" y2="130" gradientUnits="userSpaceOnUse">
<stop stop-color="#FFFBF3"/>
<stop offset="1" stop-color="#D7992E"/>
</linearGradient>
<linearGradient id="paint5_linear_2410_953" x1="43.5" y1="0" x2="43.5" y2="130" gradientUnits="userSpaceOnUse">
<stop stop-color="#FFFBF3"/>
<stop offset="1" stop-color="#D7992E"/>
</linearGradient>
<linearGradient id="paint6_linear_2410_953" x1="43.5" y1="0" x2="43.5" y2="130" gradientUnits="userSpaceOnUse">
<stop stop-color="#FFFBF3"/>
<stop offset="1" stop-color="#D7992E"/>
</linearGradient>
<linearGradient id="paint7_linear_2410_953" x1="43.5" y1="0" x2="43.5" y2="130" gradientUnits="userSpaceOnUse">
<stop stop-color="#FFFBF3"/>
<stop offset="1" stop-color="#D7992E"/>
</linearGradient>
<linearGradient id="paint8_linear_2410_953" x1="43.5" y1="0" x2="43.5" y2="130" gradientUnits="userSpaceOnUse">
<stop stop-color="#FFFBF3"/>
<stop offset="1" stop-color="#D7992E"/>
</linearGradient>
<linearGradient id="paint9_linear_2410_953" x1="43.5" y1="0" x2="43.5" y2="130" gradientUnits="userSpaceOnUse">
<stop stop-color="#FFFBF3"/>
<stop offset="1" stop-color="#D7992E"/>
</linearGradient>
</defs>
</svg>
