<svg width="237" height="354" viewBox="0 0 237 354" fill="none" xmlns="http://www.w3.org/2000/svg">
<path d="M103.475 305.568C119.89 285.982 138.71 255.978 148.332 214.324C157.965 172.627 154.298 129.304 148.326 96.6074C145.333 80.2226 141.745 66.4171 138.902 56.6974C137.479 51.8361 136.242 47.992 135.356 45.3527C134.913 44.0331 134.558 43.0138 134.312 42.3193C134.189 41.972 134.093 41.7053 134.026 41.523C133.993 41.4319 133.967 41.3614 133.949 41.3126C133.94 41.2884 133.933 41.2695 133.928 41.2559C133.925 41.2493 133.924 41.2437 133.922 41.2396L133.92 41.2338C133.916 41.2336 133.815 41.2785 130.679 42.7019L133.919 41.2316C133.059 38.9247 130.667 37.8239 128.577 38.7729C126.487 39.722 125.49 42.3608 126.35 44.6675L126.352 44.6758C126.355 44.6837 126.36 44.697 126.367 44.7155C126.381 44.7527 126.402 44.8115 126.431 44.8905C126.489 45.0489 126.576 45.2908 126.69 45.6128C126.919 46.2576 127.256 47.2246 127.68 48.4898C128.529 51.0205 129.729 54.7436 131.113 59.4729C133.881 68.9356 137.383 82.4058 140.303 98.3925C146.156 130.439 149.605 172.246 140.401 212.091C131.187 251.978 113.175 280.691 97.4664 299.435C89.6119 308.807 82.3427 315.675 77.0596 320.184C74.419 322.438 72.2775 324.101 70.8106 325.19C70.0773 325.735 69.5127 326.136 69.1393 326.396C68.9527 326.526 68.8135 326.621 68.7252 326.68L68.6125 326.755C66.6703 328.028 66.0302 330.798 67.1825 332.942C68.3355 335.088 70.8465 335.796 72.7905 334.523L70.8251 330.867C72.6922 334.341 72.7872 334.513 72.7936 334.52L72.7989 334.518C72.8024 334.515 72.8067 334.512 72.8118 334.509C72.8223 334.502 72.8362 334.493 72.8532 334.482C72.8875 334.459 72.9354 334.427 72.9955 334.386C73.1157 334.305 73.2867 334.189 73.5058 334.036C73.9447 333.73 74.5774 333.281 75.38 332.685C76.9851 331.493 79.274 329.715 82.0678 327.33C87.6535 322.562 95.2685 315.361 103.475 305.568Z" fill="url(#paint0_linear_2361_1494)"/>
<path d="M33.5043 300.851C51.3465 317.077 73.2243 320.302 82.3697 308.053C91.5152 295.804 84.4651 272.72 66.6229 256.494C48.7807 240.268 6.19273 226.807 0.870098 233.935C-4.45253 241.064 15.6621 284.625 33.5043 300.851Z" fill="url(#paint1_linear_2361_1494)"/>
<path d="M140.567 296.524C117.447 296.479 98.6851 309.309 98.6599 325.181C98.6347 341.053 117.356 353.955 140.475 354C163.595 354.045 204.249 334.622 204.264 325.385C204.279 316.148 163.686 296.569 140.567 296.524Z" fill="url(#paint2_linear_2361_1494)"/>
<path d="M80.0346 249.084C98.3038 260.414 118.184 259.641 124.438 247.359C130.691 235.076 120.951 215.934 102.682 204.604C84.4125 193.274 44.627 188.457 40.9873 195.606C37.3476 202.754 61.7654 237.754 80.0346 249.084Z" fill="url(#paint3_linear_2361_1494)"/>
<path d="M176.595 220.421C155.833 223.563 140.408 237.426 142.143 251.384C143.877 265.343 162.114 274.111 182.876 270.968C203.637 267.826 237.988 245.155 236.978 237.031C235.969 228.907 197.356 217.278 176.595 220.421Z" fill="url(#paint4_linear_2361_1494)"/>
<path d="M105.737 192.904C122.229 199.537 138.613 195.788 142.33 184.531C146.048 173.273 135.692 158.769 119.199 152.136C102.706 145.502 69.1587 147.678 66.9951 154.23C64.8315 160.782 89.2439 186.27 105.737 192.904Z" fill="url(#paint5_linear_2361_1494)"/>
<path d="M176.613 154.026C160.683 162.164 151.466 177.576 156.027 188.45C160.588 199.323 177.199 201.541 193.128 193.403C209.058 185.264 231.446 157.605 228.791 151.276C226.137 144.948 192.542 145.888 176.613 154.026Z" fill="url(#paint6_linear_2361_1494)"/>
<path d="M108.755 135.166C122.896 140.958 137.422 136.547 141.199 125.313C144.976 114.079 136.575 100.278 122.434 94.4861C108.293 88.6945 78.8036 92.32 76.6052 98.8579C74.4068 105.396 94.6137 129.375 108.755 135.166Z" fill="url(#paint7_linear_2361_1494)"/>
<path d="M167.229 91.9994C154.777 101.394 149.65 117.029 155.777 126.92C161.904 136.812 176.965 137.215 189.417 127.82C201.869 118.426 216.221 89.7644 212.655 84.0075C209.089 78.2506 179.681 82.6048 167.229 91.9994Z" fill="url(#paint8_linear_2361_1494)"/>
<path d="M107.966 56.7437C113.348 73.6448 129.081 82.9356 143.106 77.4953C157.131 72.0551 164.138 53.9439 158.755 37.0428C153.373 20.1418 126.683 -2.87145 118.52 0.294771C110.358 3.46099 102.583 39.8427 107.966 56.7437Z" fill="url(#paint9_linear_2361_1494)"/>
<defs>
<linearGradient id="paint0_linear_2361_1494" x1="118.5" y1="0" x2="118.5" y2="354" gradientUnits="userSpaceOnUse">
<stop stop-color="#D9D9D9"/>
<stop offset="1" stop-color="#2B2B2B"/>
</linearGradient>
<linearGradient id="paint1_linear_2361_1494" x1="118.5" y1="0" x2="118.5" y2="354" gradientUnits="userSpaceOnUse">
<stop stop-color="#D9D9D9"/>
<stop offset="1" stop-color="#2B2B2B"/>
</linearGradient>
<linearGradient id="paint2_linear_2361_1494" x1="118.5" y1="0" x2="118.5" y2="354" gradientUnits="userSpaceOnUse">
<stop stop-color="#D9D9D9"/>
<stop offset="1" stop-color="#2B2B2B"/>
</linearGradient>
<linearGradient id="paint3_linear_2361_1494" x1="118.5" y1="0" x2="118.5" y2="354" gradientUnits="userSpaceOnUse">
<stop stop-color="#D9D9D9"/>
<stop offset="1" stop-color="#2B2B2B"/>
</linearGradient>
<linearGradient id="paint4_linear_2361_1494" x1="118.5" y1="0" x2="118.5" y2="354" gradientUnits="userSpaceOnUse">
<stop stop-color="#D9D9D9"/>
<stop offset="1" stop-color="#2B2B2B"/>
</linearGradient>
<linearGradient id="paint5_linear_2361_1494" x1="118.5" y1="0" x2="118.5" y2="354" gradientUnits="userSpaceOnUse">
<stop stop-color="#D9D9D9"/>
<stop offset="1" stop-color="#2B2B2B"/>
</linearGradient>
<linearGradient id="paint6_linear_2361_1494" x1="118.5" y1="0" x2="118.5" y2="354" gradientUnits="userSpaceOnUse">
<stop stop-color="#D9D9D9"/>
<stop offset="1" stop-color="#2B2B2B"/>
</linearGradient>
<linearGradient id="paint7_linear_2361_1494" x1="118.5" y1="0" x2="118.5" y2="354" gradientUnits="userSpaceOnUse">
<stop stop-color="#D9D9D9"/>
<stop offset="1" stop-color="#2B2B2B"/>
</linearGradient>
<linearGradient id="paint8_linear_2361_1494" x1="118.5" y1="0" x2="118.5" y2="354" gradientUnits="userSpaceOnUse">
<stop stop-color="#D9D9D9"/>
<stop offset="1" stop-color="#2B2B2B"/>
</linearGradient>
<linearGradient id="paint9_linear_2361_1494" x1="118.5" y1="0" x2="118.5" y2="354" gradientUnits="userSpaceOnUse">
<stop stop-color="#D9D9D9"/>
<stop offset="1" stop-color="#2B2B2B"/>
</linearGradient>
</defs>
</svg>
