<svg width="28" height="28" viewBox="0 0 28 28" fill="none" xmlns="http://www.w3.org/2000/svg">
<path d="M14 13.9998C12.7166 13.9998 11.618 13.5429 10.7041 12.629C9.79024 11.7151 9.33329 10.6165 9.33329 9.33317C9.33329 8.04984 9.79024 6.95123 10.7041 6.03734C11.618 5.12345 12.7166 4.6665 14 4.6665C15.2833 4.6665 16.3819 5.12345 17.2958 6.03734C18.2097 6.95123 18.6666 8.04984 18.6666 9.33317C18.6666 10.6165 18.2097 11.7151 17.2958 12.629C16.3819 13.5429 15.2833 13.9998 14 13.9998ZM4.66663 23.3332V20.0665C4.66663 19.4054 4.83676 18.7978 5.17704 18.2436C5.51732 17.6894 5.9694 17.2665 6.53329 16.9748C7.73885 16.3721 8.96385 15.92 10.2083 15.6186C11.4527 15.3172 12.7166 15.1665 14 15.1665C15.2833 15.1665 16.5472 15.3172 17.7916 15.6186C19.0361 15.92 20.2611 16.3721 21.4666 16.9748C22.0305 17.2665 22.4826 17.6894 22.8229 18.2436C23.1632 18.7978 23.3333 19.4054 23.3333 20.0665V23.3332H4.66663ZM6.99996 20.9998H21V20.0665C21 19.8526 20.9465 19.6582 20.8395 19.4832C20.7326 19.3082 20.5916 19.1721 20.4166 19.0748C19.3666 18.5498 18.3069 18.1561 17.2375 17.8936C16.168 17.6311 15.0888 17.4998 14 17.4998C12.9111 17.4998 11.8319 17.6311 10.7625 17.8936C9.69302 18.1561 8.63329 18.5498 7.58329 19.0748C7.40829 19.1721 7.26732 19.3082 7.16038 19.4832C7.05343 19.6582 6.99996 19.8526 6.99996 20.0665V20.9998ZM14 11.6665C14.6416 11.6665 15.1909 11.438 15.6479 10.9811C16.1048 10.5241 16.3333 9.97484 16.3333 9.33317C16.3333 8.6915 16.1048 8.1422 15.6479 7.68525C15.1909 7.22831 14.6416 6.99984 14 6.99984C13.3583 6.99984 12.809 7.22831 12.352 7.68525C11.8951 8.1422 11.6666 8.6915 11.6666 9.33317C11.6666 9.97484 11.8951 10.5241 12.352 10.9811C12.809 11.438 13.3583 11.6665 14 11.6665Z" fill="#4E4938"/>
</svg>
