<svg width="30" height="30" viewBox="0 0 30 30" fill="none" xmlns="http://www.w3.org/2000/svg">
<path d="M15 11.25C15.9946 11.25 16.9484 11.6451 17.6517 12.3483C18.3549 13.0516 18.75 14.0054 18.75 15C18.75 15.9946 18.3549 16.9484 17.6517 17.6517C16.9484 18.3549 15.9946 18.75 15 18.75C14.0054 18.75 13.0516 18.3549 12.3483 17.6517C11.6451 16.9484 11.25 15.9946 11.25 15C11.25 14.0054 11.6451 13.0516 12.3483 12.3483C13.0516 11.6451 14.0054 11.25 15 11.25ZM15 5.625C21.25 5.625 26.5875 9.5125 28.75 15C26.5875 20.4875 21.25 24.375 15 24.375C8.75 24.375 3.4125 20.4875 1.25 15C3.4125 9.5125 8.75 5.625 15 5.625ZM3.975 15C6.0375 19.2 10.3 21.875 15 21.875C19.7 21.875 23.9625 19.2 26.025 15C23.9625 10.8 19.7 8.125 15 8.125C10.3 8.125 6.0375 10.8 3.975 15Z" fill="white"/>
</svg>
