<svg width="24" height="24" viewBox="0 0 24 24" fill="none" xmlns="http://www.w3.org/2000/svg">
<path d="M15.3 16.9476L16.7 15.5476L13 11.8476V7.24756H11V12.6476L15.3 16.9476ZM12 22.2476C10.6167 22.2476 9.31667 21.9851 8.1 21.4601C6.88333 20.9351 5.825 20.2226 4.925 19.3226C4.025 18.4226 3.3125 17.3642 2.7875 16.1476C2.2625 14.9309 2 13.6309 2 12.2476C2 10.8642 2.2625 9.56423 2.7875 8.34756C3.3125 7.13089 4.025 6.07256 4.925 5.17256C5.825 4.27256 6.88333 3.56006 8.1 3.03506C9.31667 2.51006 10.6167 2.24756 12 2.24756C13.3833 2.24756 14.6833 2.51006 15.9 3.03506C17.1167 3.56006 18.175 4.27256 19.075 5.17256C19.975 6.07256 20.6875 7.13089 21.2125 8.34756C21.7375 9.56423 22 10.8642 22 12.2476C22 13.6309 21.7375 14.9309 21.2125 16.1476C20.6875 17.3642 19.975 18.4226 19.075 19.3226C18.175 20.2226 17.1167 20.9351 15.9 21.4601C14.6833 21.9851 13.3833 22.2476 12 22.2476ZM12 20.2476C14.2167 20.2476 16.1042 19.4684 17.6625 17.9101C19.2208 16.3517 20 14.4642 20 12.2476C20 10.0309 19.2208 8.14339 17.6625 6.58506C16.1042 5.02673 14.2167 4.24756 12 4.24756C9.78333 4.24756 7.89583 5.02673 6.3375 6.58506C4.77917 8.14339 4 10.0309 4 12.2476C4 14.4642 4.77917 16.3517 6.3375 17.9101C7.89583 19.4684 9.78333 20.2476 12 20.2476Z" fill="#1C1B1F"/>
</svg>
