<svg width="24" height="24" viewBox="0 0 24 24" fill="none" xmlns="http://www.w3.org/2000/svg">
<path d="M11 17.2476H13V11.2476H11V17.2476ZM12 9.24756C12.2833 9.24756 12.5208 9.15173 12.7125 8.96006C12.9042 8.76839 13 8.53089 13 8.24756C13 7.96423 12.9042 7.72673 12.7125 7.53506C12.5208 7.34339 12.2833 7.24756 12 7.24756C11.7167 7.24756 11.4792 7.34339 11.2875 7.53506C11.0958 7.72673 11 7.96423 11 8.24756C11 8.53089 11.0958 8.76839 11.2875 8.96006C11.4792 9.15173 11.7167 9.24756 12 9.24756ZM12 22.2476C10.6167 22.2476 9.31667 21.9851 8.1 21.4601C6.88333 20.9351 5.825 20.2226 4.925 19.3226C4.025 18.4226 3.3125 17.3642 2.7875 16.1476C2.2625 14.9309 2 13.6309 2 12.2476C2 10.8642 2.2625 9.56423 2.7875 8.34756C3.3125 7.13089 4.025 6.07256 4.925 5.17256C5.825 4.27256 6.88333 3.56006 8.1 3.03506C9.31667 2.51006 10.6167 2.24756 12 2.24756C13.3833 2.24756 14.6833 2.51006 15.9 3.03506C17.1167 3.56006 18.175 4.27256 19.075 5.17256C19.975 6.07256 20.6875 7.13089 21.2125 8.34756C21.7375 9.56423 22 10.8642 22 12.2476C22 13.6309 21.7375 14.9309 21.2125 16.1476C20.6875 17.3642 19.975 18.4226 19.075 19.3226C18.175 20.2226 17.1167 20.9351 15.9 21.4601C14.6833 21.9851 13.3833 22.2476 12 22.2476ZM12 20.2476C14.2333 20.2476 16.125 19.4726 17.675 17.9226C19.225 16.3726 20 14.4809 20 12.2476C20 10.0142 19.225 8.12256 17.675 6.57256C16.125 5.02256 14.2333 4.24756 12 4.24756C9.76667 4.24756 7.875 5.02256 6.325 6.57256C4.775 8.12256 4 10.0142 4 12.2476C4 14.4809 4.775 16.3726 6.325 17.9226C7.875 19.4726 9.76667 20.2476 12 20.2476Z" fill="#1C1B1F"/>
</svg>
