<svg width="24" height="21" viewBox="0 0 24 21" fill="none" xmlns="http://www.w3.org/2000/svg">
<path d="M7 9.625L11 1.75C11.7956 1.75 12.5587 2.02656 13.1213 2.51884C13.6839 3.01113 14 3.67881 14 4.375V7.875H19.66C19.9499 7.87213 20.2371 7.92444 20.5016 8.02832C20.7661 8.13219 21.0016 8.28514 21.1919 8.47658C21.3821 8.66801 21.5225 8.89334 21.6033 9.13697C21.6842 9.3806 21.7035 9.63669 21.66 9.8875L20.28 17.7625C20.2077 18.1798 19.9654 18.5602 19.5979 18.8335C19.2304 19.1069 18.7623 19.2548 18.28 19.25H7M7 9.625V19.25M7 9.625H4C3.46957 9.625 2.96086 9.80938 2.58579 10.1376C2.21071 10.4658 2 10.9109 2 11.375V17.5C2 17.9641 2.21071 18.4092 2.58579 18.7374C2.96086 19.0656 3.46957 19.25 4 19.25H7" stroke="#1E1E1E" stroke-width="2" stroke-linecap="round" stroke-linejoin="round"/>
</svg>
