<svg width="24" height="24" viewBox="0 0 24 24" fill="none" xmlns="http://www.w3.org/2000/svg">
<path d="M6.68164 23L9.48164 8.9L7.68164 9.6V13H5.68164V8.3L10.7316 6.15C10.965 6.05 11.2108 5.99167 11.4691 5.975C11.7275 5.95833 11.9733 5.99167 12.2066 6.075C12.44 6.15833 12.6608 6.275 12.8691 6.425C13.0775 6.575 13.2483 6.76667 13.3816 7L14.3816 8.6C14.815 9.3 15.4025 9.875 16.1441 10.325C16.8858 10.775 17.7316 11 18.6816 11V13C17.515 13 16.4733 12.7583 15.5566 12.275C14.64 11.7917 13.8566 11.175 13.2066 10.425L12.5816 13.5L14.6816 15.5V23H12.6816V16.5L10.5816 14.9L8.78164 23H6.68164ZM13.1816 5.5C12.6316 5.5 12.1608 5.30417 11.7691 4.9125C11.3775 4.52083 11.1816 4.05 11.1816 3.5C11.1816 2.95 11.3775 2.47917 11.7691 2.0875C12.1608 1.69583 12.6316 1.5 13.1816 1.5C13.7316 1.5 14.2025 1.69583 14.5941 2.0875C14.9858 2.47917 15.1816 2.95 15.1816 3.5C15.1816 4.05 14.9858 4.52083 14.5941 4.9125C14.2025 5.30417 13.7316 5.5 13.1816 5.5Z" fill="#1C1B1F"/>
</svg>
