<svg width="24" height="24" viewBox="0 0 24 24" fill="none" xmlns="http://www.w3.org/2000/svg">
<path d="M4.23535 21V11.625L2.43535 13L1.23535 11.4L4.23535 9.1V6H6.23535V7.575L12.2354 3L23.2354 11.4L22.0354 12.975L20.2354 11.625V21H13.2354V15H11.2354V21H4.23535ZM4.23535 5C4.23535 4.16667 4.52702 3.45833 5.11035 2.875C5.69369 2.29167 6.40202 2 7.23535 2C7.51868 2 7.75619 1.90417 7.94785 1.7125C8.13952 1.52083 8.23535 1.28333 8.23535 1H10.2354C10.2354 1.83333 9.94368 2.54167 9.36035 3.125C8.77702 3.70833 8.06869 4 7.23535 4C6.95202 4 6.71452 4.09583 6.52285 4.2875C6.33118 4.47917 6.23535 4.71667 6.23535 5H4.23535Z" fill="#1C1B1F"/>
</svg>
