<svg width="54" height="18" viewBox="0 0 54 18" fill="none" xmlns="http://www.w3.org/2000/svg">
<rect width="54" height="18" rx="5" fill="url(#paint0_linear_2016_718)" fill-opacity="0.57"/>
<g clip-path="url(#clip0_2016_718)">
<path d="M13.0416 10.7915H13.9583V8.95817H15.7916V8.0415H13.9583V6.20817H13.0416V8.0415H11.2083V8.95817H13.0416V10.7915ZM13.5 13.0832C12.8659 13.0832 12.2701 12.9629 11.7125 12.7222C11.1548 12.4816 10.6698 12.155 10.2573 11.7425C9.84475 11.33 9.51819 10.845 9.27756 10.2873C9.03694 9.7297 8.91663 9.13386 8.91663 8.49984C8.91663 7.86581 9.03694 7.26998 9.27756 6.71234C9.51819 6.1547 9.84475 5.66963 10.2573 5.25713C10.6698 4.84463 11.1548 4.51807 11.7125 4.27744C12.2701 4.03682 12.8659 3.9165 13.5 3.9165C14.134 3.9165 14.7298 4.03682 15.2875 4.27744C15.8451 4.51807 16.3302 4.84463 16.7427 5.25713C17.1552 5.66963 17.4817 6.1547 17.7224 6.71234C17.963 7.26998 18.0833 7.86581 18.0833 8.49984C18.0833 9.13386 17.963 9.7297 17.7224 10.2873C17.4817 10.845 17.1552 11.33 16.7427 11.7425C16.3302 12.155 15.8451 12.4816 15.2875 12.7222C14.7298 12.9629 14.134 13.0832 13.5 13.0832ZM13.5 12.1665C14.5236 12.1665 15.3906 11.8113 16.101 11.1009C16.8114 10.3905 17.1666 9.52345 17.1666 8.49984C17.1666 7.47623 16.8114 6.60921 16.101 5.8988C15.3906 5.18838 14.5236 4.83317 13.5 4.83317C12.4763 4.83317 11.6093 5.18838 10.8989 5.8988C10.1885 6.60921 9.83329 7.47623 9.83329 8.49984C9.83329 9.52345 10.1885 10.3905 10.8989 11.1009C11.6093 11.8113 12.4763 12.1665 13.5 12.1665Z" fill="#FBF7F5"/>
</g>
<path d="M22.95 13L26.1 6H27.38L30.54 13H29.18L26.47 6.69H26.99L24.29 13H22.95ZM24.4 11.38L24.75 10.36H28.53L28.88 11.38H24.4ZM33.5214 13.07C33.0081 13.07 32.5447 12.9567 32.1314 12.73C31.7247 12.4967 31.4047 12.1767 31.1714 11.77C30.9381 11.3633 30.8214 10.8833 30.8214 10.33C30.8214 9.77667 30.9381 9.29667 31.1714 8.89C31.4047 8.48333 31.7247 8.16667 32.1314 7.94C32.5447 7.71333 33.0081 7.6 33.5214 7.6C33.9681 7.6 34.3681 7.7 34.7214 7.9C35.0747 8.09333 35.3547 8.39 35.5614 8.79C35.7681 9.19 35.8714 9.70333 35.8714 10.33C35.8714 10.95 35.7714 11.4633 35.5714 11.87C35.3714 12.27 35.0947 12.57 34.7414 12.77C34.3881 12.97 33.9814 13.07 33.5214 13.07ZM33.6714 12C33.9714 12 34.2381 11.9333 34.4714 11.8C34.7114 11.6667 34.9014 11.4733 35.0414 11.22C35.1881 10.9667 35.2614 10.67 35.2614 10.33C35.2614 9.98333 35.1881 9.68667 35.0414 9.44C34.9014 9.18667 34.7114 8.99333 34.4714 8.86C34.2381 8.72667 33.9714 8.66 33.6714 8.66C33.3714 8.66 33.1014 8.72667 32.8614 8.86C32.6281 8.99333 32.4381 9.18667 32.2914 9.44C32.1514 9.68667 32.0814 9.98333 32.0814 10.33C32.0814 10.67 32.1514 10.9667 32.2914 11.22C32.4381 11.4733 32.6281 11.6667 32.8614 11.8C33.1014 11.9333 33.3714 12 33.6714 12ZM35.2914 13V11.74L35.3414 10.32L35.2414 8.9V5.58H36.4814V13H35.2914ZM40.3866 13.07C39.8733 13.07 39.41 12.9567 38.9966 12.73C38.59 12.4967 38.27 12.1767 38.0366 11.77C37.8033 11.3633 37.6866 10.8833 37.6866 10.33C37.6866 9.77667 37.8033 9.29667 38.0366 8.89C38.27 8.48333 38.59 8.16667 38.9966 7.94C39.41 7.71333 39.8733 7.6 40.3866 7.6C40.8333 7.6 41.2333 7.7 41.5866 7.9C41.94 8.09333 42.22 8.39 42.4266 8.79C42.6333 9.19 42.7366 9.70333 42.7366 10.33C42.7366 10.95 42.6366 11.4633 42.4366 11.87C42.2366 12.27 41.96 12.57 41.6066 12.77C41.2533 12.97 40.8466 13.07 40.3866 13.07ZM40.5366 12C40.8366 12 41.1033 11.9333 41.3366 11.8C41.5766 11.6667 41.7666 11.4733 41.9066 11.22C42.0533 10.9667 42.1266 10.67 42.1266 10.33C42.1266 9.98333 42.0533 9.68667 41.9066 9.44C41.7666 9.18667 41.5766 8.99333 41.3366 8.86C41.1033 8.72667 40.8366 8.66 40.5366 8.66C40.2366 8.66 39.9666 8.72667 39.7266 8.86C39.4933 8.99333 39.3033 9.18667 39.1566 9.44C39.0166 9.68667 38.9466 9.98333 38.9466 10.33C38.9466 10.67 39.0166 10.9667 39.1566 11.22C39.3033 11.4733 39.4933 11.6667 39.7266 11.8C39.9666 11.9333 40.2366 12 40.5366 12ZM42.1566 13V11.74L42.2066 10.32L42.1066 8.9V5.58H43.3466V13H42.1566Z" fill="#FBF7F5"/>
<defs>
<linearGradient id="paint0_linear_2016_718" x1="27" y1="0" x2="27" y2="18" gradientUnits="userSpaceOnUse">
<stop stop-color="#E6CEC4"/>
<stop offset="1" stop-color="#EBB8A3"/>
</linearGradient>
<clipPath id="clip0_2016_718">
<rect width="11" height="11" fill="white" transform="translate(8 3)"/>
</clipPath>
</defs>
</svg>
