<svg width="27" height="18" viewBox="0 0 27 18" fill="none" xmlns="http://www.w3.org/2000/svg">
<rect width="27" height="18" rx="5" fill="url(#paint0_linear_2137_1038)" fill-opacity="0.2"/>
<rect width="27" height="18" rx="5" fill="url(#paint1_linear_2137_1038)" fill-opacity="0.2"/>
<g clip-path="url(#clip0_2137_1038)">
<path d="M13.0416 10.7915H13.9583V8.95817H15.7916V8.0415H13.9583V6.20817H13.0416V8.0415H11.2083V8.95817H13.0416V10.7915ZM13.5 13.0832C12.8659 13.0832 12.2701 12.9629 11.7125 12.7222C11.1548 12.4816 10.6698 12.155 10.2573 11.7425C9.84475 11.33 9.51819 10.845 9.27756 10.2873C9.03694 9.7297 8.91663 9.13386 8.91663 8.49984C8.91663 7.86581 9.03694 7.26998 9.27756 6.71234C9.51819 6.1547 9.84475 5.66963 10.2573 5.25713C10.6698 4.84463 11.1548 4.51807 11.7125 4.27744C12.2701 4.03682 12.8659 3.9165 13.5 3.9165C14.134 3.9165 14.7298 4.03682 15.2875 4.27744C15.8451 4.51807 16.3302 4.84463 16.7427 5.25713C17.1552 5.66963 17.4817 6.1547 17.7224 6.71234C17.963 7.26998 18.0833 7.86581 18.0833 8.49984C18.0833 9.13386 17.963 9.7297 17.7224 10.2873C17.4817 10.845 17.1552 11.33 16.7427 11.7425C16.3302 12.155 15.8451 12.4816 15.2875 12.7222C14.7298 12.9629 14.134 13.0832 13.5 13.0832ZM13.5 12.1665C14.5236 12.1665 15.3906 11.8113 16.101 11.1009C16.8114 10.3905 17.1666 9.52345 17.1666 8.49984C17.1666 7.47623 16.8114 6.60921 16.101 5.8988C15.3906 5.18838 14.5236 4.83317 13.5 4.83317C12.4763 4.83317 11.6093 5.18838 10.8989 5.8988C10.1885 6.60921 9.83329 7.47623 9.83329 8.49984C9.83329 9.52345 10.1885 10.3905 10.8989 11.1009C11.6093 11.8113 12.4763 12.1665 13.5 12.1665Z" fill="#FBF7F5"/>
</g>
<defs>
<linearGradient id="paint0_linear_2137_1038" x1="28.9636" y1="1.5" x2="-0.171997" y2="17.3925" gradientUnits="userSpaceOnUse">
<stop offset="0.168244" stop-color="#A6AF6B" stop-opacity="0.42"/>
<stop offset="0.739484" stop-color="#EE7B67" stop-opacity="0.58"/>
</linearGradient>
<linearGradient id="paint1_linear_2137_1038" x1="13.5" y1="0" x2="13.5" y2="18" gradientUnits="userSpaceOnUse">
<stop stop-color="white"/>
<stop offset="1"/>
</linearGradient>
<clipPath id="clip0_2137_1038">
<rect width="11" height="11" fill="white" transform="translate(8 3)"/>
</clipPath>
</defs>
</svg>
