<svg width="65" height="18" viewBox="0 0 65 18" fill="none" xmlns="http://www.w3.org/2000/svg">
<rect width="65" height="18" rx="5" fill="#A6AF6B" fill-opacity="0.53"/>
<path d="M11 11C10.45 11 9.97917 10.8042 9.5875 10.4125C9.19583 10.0208 9 9.55 9 9C9 8.45 9.19583 7.97917 9.5875 7.5875C9.97917 7.19583 10.45 7 11 7C11.55 7 12.0208 7.19583 12.4125 7.5875C12.8042 7.97917 13 8.45 13 9C13 9.55 12.8042 10.0208 12.4125 10.4125C12.0208 10.8042 11.55 11 11 11ZM17 11C16.45 11 15.9792 10.8042 15.5875 10.4125C15.1958 10.0208 15 9.55 15 9C15 8.45 15.1958 7.97917 15.5875 7.5875C15.9792 7.19583 16.45 7 17 7C17.55 7 18.0208 7.19583 18.4125 7.5875C18.8042 7.97917 19 8.45 19 9C19 9.55 18.8042 10.0208 18.4125 10.4125C18.0208 10.8042 17.55 11 17 11ZM23 11C22.45 11 21.9792 10.8042 21.5875 10.4125C21.1958 10.0208 21 9.55 21 9C21 8.45 21.1958 7.97917 21.5875 7.5875C21.9792 7.19583 22.45 7 23 7C23.55 7 24.0208 7.19583 24.4125 7.5875C24.8042 7.97917 25 8.45 25 9C25 9.55 24.8042 10.0208 24.4125 10.4125C24.0208 10.8042 23.55 11 23 11Z" fill="#FBF7F5"/>
<path d="M31.01 13L27.95 6H29.36L32.09 12.33H31.28L34.04 6H35.34L32.29 13H31.01ZM36.0075 13V7.66H37.2575V13H36.0075ZM36.6375 6.78C36.4042 6.78 36.2108 6.70667 36.0575 6.56C35.9108 6.41333 35.8375 6.23667 35.8375 6.03C35.8375 5.81667 35.9108 5.64 36.0575 5.5C36.2108 5.35333 36.4042 5.28 36.6375 5.28C36.8708 5.28 37.0608 5.35 37.2075 5.49C37.3608 5.62333 37.4375 5.79333 37.4375 6C37.4375 6.22 37.3642 6.40667 37.2175 6.56C37.0708 6.70667 36.8775 6.78 36.6375 6.78ZM41.4081 13.07C40.8148 13.07 40.2948 12.9533 39.8481 12.72C39.4081 12.48 39.0648 12.1533 38.8181 11.74C38.5781 11.3267 38.4581 10.8567 38.4581 10.33C38.4581 9.79667 38.5748 9.32667 38.8081 8.92C39.0481 8.50667 39.3748 8.18333 39.7881 7.95C40.2081 7.71667 40.6848 7.6 41.2181 7.6C41.7381 7.6 42.2015 7.71333 42.6081 7.94C43.0148 8.16667 43.3348 8.48667 43.5681 8.9C43.8015 9.31333 43.9181 9.8 43.9181 10.36C43.9181 10.4133 43.9148 10.4733 43.9081 10.54C43.9081 10.6067 43.9048 10.67 43.8981 10.73H39.4481V9.9H43.2381L42.7481 10.16C42.7548 9.85333 42.6915 9.58333 42.5581 9.35C42.4248 9.11667 42.2415 8.93333 42.0081 8.8C41.7815 8.66667 41.5181 8.6 41.2181 8.6C40.9115 8.6 40.6415 8.66667 40.4081 8.8C40.1815 8.93333 40.0015 9.12 39.8681 9.36C39.7415 9.59333 39.6781 9.87 39.6781 10.19V10.39C39.6781 10.71 39.7515 10.9933 39.8981 11.24C40.0448 11.4867 40.2515 11.6767 40.5181 11.81C40.7848 11.9433 41.0915 12.01 41.4381 12.01C41.7381 12.01 42.0081 11.9633 42.2481 11.87C42.4881 11.7767 42.7015 11.63 42.8881 11.43L43.5581 12.2C43.3181 12.48 43.0148 12.6967 42.6481 12.85C42.2881 12.9967 41.8748 13.07 41.4081 13.07ZM46.2012 13L44.2412 7.66H45.4212L47.1012 12.37H46.5412L48.3012 7.66H49.3512L51.0612 12.37H50.5112L52.2412 7.66H53.3512L51.3812 13H50.1812L48.6212 8.83H48.9912L47.4012 13H46.2012Z" fill="#FBF7F5"/>
</svg>
