<svg width="82" height="26" viewBox="0 0 82 26" fill="none" xmlns="http://www.w3.org/2000/svg">
<g filter="url(#filter0_d_2137_1029)">
<rect x="4" width="74" height="18" rx="5" fill="#AE6161" fill-opacity="0.49" shape-rendering="crispEdges"/>
<path d="M14.8151 11.8475L14.2318 11.2642L16.5651 8.93083L14.2318 6.59749L14.8151 6.01416L17.1485 8.34749L19.4818 6.01416L20.0651 6.59749L17.7318 8.93083L20.0651 11.2642L19.4818 11.8475L17.1485 9.51416L14.8151 11.8475Z" fill="#FBF7F5"/>
<path d="M26.94 13V6H29.82C30.44 6 30.97 6.1 31.41 6.3C31.8567 6.5 32.2 6.78667 32.44 7.16C32.68 7.53333 32.8 7.97667 32.8 8.49C32.8 9.00333 32.68 9.44667 32.44 9.82C32.2 10.1867 31.8567 10.47 31.41 10.67C30.97 10.8633 30.44 10.96 29.82 10.96H27.66L28.24 10.37V13H26.94ZM31.52 13L29.75 10.46H31.14L32.92 13H31.52ZM28.24 10.51L27.66 9.89H29.76C30.3333 9.89 30.7633 9.76667 31.05 9.52C31.3433 9.27333 31.49 8.93 31.49 8.49C31.49 8.04333 31.3433 7.7 31.05 7.46C30.7633 7.22 30.3333 7.1 29.76 7.1H27.66L28.24 6.46V10.51ZM36.6445 13.07C36.0511 13.07 35.5311 12.9533 35.0845 12.72C34.6445 12.48 34.3011 12.1533 34.0545 11.74C33.8145 11.3267 33.6945 10.8567 33.6945 10.33C33.6945 9.79667 33.8111 9.32667 34.0445 8.92C34.2845 8.50667 34.6111 8.18333 35.0245 7.95C35.4445 7.71667 35.9211 7.6 36.4545 7.6C36.9745 7.6 37.4378 7.71333 37.8445 7.94C38.2511 8.16667 38.5711 8.48667 38.8045 8.9C39.0378 9.31333 39.1545 9.8 39.1545 10.36C39.1545 10.4133 39.1511 10.4733 39.1445 10.54C39.1445 10.6067 39.1411 10.67 39.1345 10.73H34.6845V9.9H38.4745L37.9845 10.16C37.9911 9.85333 37.9278 9.58333 37.7945 9.35C37.6611 9.11667 37.4778 8.93333 37.2445 8.8C37.0178 8.66667 36.7545 8.6 36.4545 8.6C36.1478 8.6 35.8778 8.66667 35.6445 8.8C35.4178 8.93333 35.2378 9.12 35.1045 9.36C34.9778 9.59333 34.9145 9.87 34.9145 10.19V10.39C34.9145 10.71 34.9878 10.9933 35.1345 11.24C35.2811 11.4867 35.4878 11.6767 35.7545 11.81C36.0211 11.9433 36.3278 12.01 36.6745 12.01C36.9745 12.01 37.2445 11.9633 37.4845 11.87C37.7245 11.7767 37.9378 11.63 38.1245 11.43L38.7945 12.2C38.5545 12.48 38.2511 12.6967 37.8845 12.85C37.5245 12.9967 37.1111 13.07 36.6445 13.07ZM47.0952 7.6C47.5218 7.6 47.8985 7.68333 48.2252 7.85C48.5585 8.01667 48.8185 8.27333 49.0052 8.62C49.1918 8.96 49.2852 9.4 49.2852 9.94V13H48.0352V10.1C48.0352 9.62667 47.9318 9.27333 47.7252 9.04C47.5185 8.80667 47.2218 8.69 46.8352 8.69C46.5618 8.69 46.3185 8.75 46.1052 8.87C45.8985 8.99 45.7352 9.16667 45.6152 9.4C45.5018 9.63333 45.4452 9.93 45.4452 10.29V13H44.1952V10.1C44.1952 9.62667 44.0918 9.27333 43.8852 9.04C43.6785 8.80667 43.3818 8.69 42.9952 8.69C42.7218 8.69 42.4785 8.75 42.2652 8.87C42.0585 8.99 41.8952 9.16667 41.7752 9.4C41.6618 9.63333 41.6052 9.93 41.6052 10.29V13H40.3552V7.66H41.5452V9.08L41.3352 8.66C41.5152 8.31333 41.7752 8.05 42.1152 7.87C42.4618 7.69 42.8552 7.6 43.2952 7.6C43.7952 7.6 44.2285 7.72333 44.5952 7.97C44.9685 8.21667 45.2152 8.59 45.3352 9.09L44.8452 8.92C45.0185 8.52 45.3052 8.2 45.7052 7.96C46.1052 7.72 46.5685 7.6 47.0952 7.6ZM53.2923 13.07C52.7456 13.07 52.2589 12.9533 51.8323 12.72C51.4056 12.48 51.0689 12.1533 50.8223 11.74C50.5756 11.3267 50.4523 10.8567 50.4523 10.33C50.4523 9.79667 50.5756 9.32667 50.8223 8.92C51.0689 8.50667 51.4056 8.18333 51.8323 7.95C52.2589 7.71667 52.7456 7.6 53.2923 7.6C53.8456 7.6 54.3356 7.71667 54.7623 7.95C55.1956 8.18333 55.5323 8.50333 55.7723 8.91C56.0189 9.31667 56.1423 9.79 56.1423 10.33C56.1423 10.8567 56.0189 11.3267 55.7723 11.74C55.5323 12.1533 55.1956 12.48 54.7623 12.72C54.3356 12.9533 53.8456 13.07 53.2923 13.07ZM53.2923 12C53.5989 12 53.8723 11.9333 54.1123 11.8C54.3523 11.6667 54.5389 11.4733 54.6723 11.22C54.8123 10.9667 54.8823 10.67 54.8823 10.33C54.8823 9.98333 54.8123 9.68667 54.6723 9.44C54.5389 9.18667 54.3523 8.99333 54.1123 8.86C53.8723 8.72667 53.6023 8.66 53.3023 8.66C52.9956 8.66 52.7223 8.72667 52.4823 8.86C52.2489 8.99333 52.0623 9.18667 51.9223 9.44C51.7823 9.68667 51.7123 9.98333 51.7123 10.33C51.7123 10.67 51.7823 10.9667 51.9223 11.22C52.0623 11.4733 52.2489 11.6667 52.4823 11.8C52.7223 11.9333 52.9923 12 53.2923 12ZM58.6111 13L56.3211 7.66H57.6211L59.5911 12.37H58.9511L60.9911 7.66H62.1911L59.9011 13H58.6111ZM65.3359 13.07C64.7425 13.07 64.2225 12.9533 63.7759 12.72C63.3359 12.48 62.9925 12.1533 62.7459 11.74C62.5059 11.3267 62.3859 10.8567 62.3859 10.33C62.3859 9.79667 62.5025 9.32667 62.7359 8.92C62.9759 8.50667 63.3025 8.18333 63.7159 7.95C64.1359 7.71667 64.6125 7.6 65.1459 7.6C65.6659 7.6 66.1292 7.71333 66.5359 7.94C66.9425 8.16667 67.2625 8.48667 67.4959 8.9C67.7292 9.31333 67.8459 9.8 67.8459 10.36C67.8459 10.4133 67.8425 10.4733 67.8359 10.54C67.8359 10.6067 67.8325 10.67 67.8259 10.73H63.3759V9.9H67.1659L66.6759 10.16C66.6825 9.85333 66.6192 9.58333 66.4859 9.35C66.3525 9.11667 66.1692 8.93333 65.9359 8.8C65.7092 8.66667 65.4459 8.6 65.1459 8.6C64.8392 8.6 64.5692 8.66667 64.3359 8.8C64.1092 8.93333 63.9292 9.12 63.7959 9.36C63.6692 9.59333 63.6059 9.87 63.6059 10.19V10.39C63.6059 10.71 63.6792 10.9933 63.8259 11.24C63.9725 11.4867 64.1792 11.6767 64.4459 11.81C64.7125 11.9433 65.0192 12.01 65.3659 12.01C65.6659 12.01 65.9359 11.9633 66.1759 11.87C66.4159 11.7767 66.6292 11.63 66.8159 11.43L67.4859 12.2C67.2459 12.48 66.9425 12.6967 66.5759 12.85C66.2159 12.9967 65.8025 13.07 65.3359 13.07Z" fill="#FBF7F5"/>
</g>
<defs>
<filter id="filter0_d_2137_1029" x="0" y="0" width="82" height="26" filterUnits="userSpaceOnUse" color-interpolation-filters="sRGB">
<feFlood flood-opacity="0" result="BackgroundImageFix"/>
<feColorMatrix in="SourceAlpha" type="matrix" values="0 0 0 0 0 0 0 0 0 0 0 0 0 0 0 0 0 0 127 0" result="hardAlpha"/>
<feOffset dy="4"/>
<feGaussianBlur stdDeviation="2"/>
<feComposite in2="hardAlpha" operator="out"/>
<feColorMatrix type="matrix" values="0 0 0 0 0 0 0 0 0 0 0 0 0 0 0 0 0 0 0.25 0"/>
<feBlend mode="normal" in2="BackgroundImageFix" result="effect1_dropShadow_2137_1029"/>
<feBlend mode="normal" in="BackgroundImageFix" in2="effect1_dropShadow_2137_1029" result="BackgroundImageFix"/>
<feBlend mode="normal" in="SourceGraphic" in2="BackgroundImageFix" result="shape"/>
</filter>
</defs>
</svg>
