<svg width="73" height="26" viewBox="0 0 73 26" fill="none" xmlns="http://www.w3.org/2000/svg">
<g filter="url(#filter0_d_2261_1805)">
<rect x="4" width="65" height="18" rx="5" fill="black" fill-opacity="0.49" shape-rendering="crispEdges"/>
<path d="M14.0833 12.75C13.8542 12.75 13.658 12.6684 13.4948 12.5052C13.3316 12.342 13.25 12.1458 13.25 11.9167V6.08333C13.25 5.85417 13.3316 5.65799 13.4948 5.49479C13.658 5.3316 13.8542 5.25 14.0833 5.25H19.9167C20.1458 5.25 20.342 5.3316 20.5052 5.49479C20.6684 5.65799 20.75 5.85417 20.75 6.08333V11.9167C20.75 12.1458 20.6684 12.342 20.5052 12.5052C20.342 12.6684 20.1458 12.75 19.9167 12.75H14.0833ZM14.0833 11.9167H19.9167V6.08333H14.0833V11.9167Z" fill="#FBF7F5"/>
<path d="M29.11 13.1C28.5633 13.1 28.04 13.0233 27.54 12.87C27.04 12.71 26.6433 12.5067 26.35 12.26L26.8 11.25C27.08 11.47 27.4267 11.6533 27.84 11.8C28.2533 11.9467 28.6767 12.02 29.11 12.02C29.4767 12.02 29.7733 11.98 30 11.9C30.2267 11.82 30.3933 11.7133 30.5 11.58C30.6067 11.44 30.66 11.2833 30.66 11.11C30.66 10.8967 30.5833 10.7267 30.43 10.6C30.2767 10.4667 30.0767 10.3633 29.83 10.29C29.59 10.21 29.32 10.1367 29.02 10.07C28.7267 10.0033 28.43 9.92667 28.13 9.84C27.8367 9.74667 27.5667 9.63 27.32 9.49C27.08 9.34333 26.8833 9.15 26.73 8.91C26.5767 8.67 26.5 8.36333 26.5 7.99C26.5 7.61 26.6 7.26333 26.8 6.95C27.0067 6.63 27.3167 6.37667 27.73 6.19C28.15 5.99667 28.68 5.9 29.32 5.9C29.74 5.9 30.1567 5.95333 30.57 6.06C30.9833 6.16667 31.3433 6.32 31.65 6.52L31.24 7.53C30.9267 7.34333 30.6033 7.20667 30.27 7.12C29.9367 7.02667 29.6167 6.98 29.31 6.98C28.95 6.98 28.6567 7.02333 28.43 7.11C28.21 7.19667 28.0467 7.31 27.94 7.45C27.84 7.59 27.79 7.75 27.79 7.93C27.79 8.14333 27.8633 8.31667 28.01 8.45C28.1633 8.57667 28.36 8.67667 28.6 8.75C28.8467 8.82333 29.12 8.89667 29.42 8.97C29.72 9.03667 30.0167 9.11333 30.31 9.2C30.61 9.28667 30.88 9.4 31.12 9.54C31.3667 9.68 31.5633 9.87 31.71 10.11C31.8633 10.35 31.94 10.6533 31.94 11.02C31.94 11.3933 31.8367 11.74 31.63 12.06C31.43 12.3733 31.12 12.6267 30.7 12.82C30.28 13.0067 29.75 13.1 29.11 13.1ZM35.6191 13.07C35.0257 13.07 34.5057 12.9533 34.0591 12.72C33.6191 12.48 33.2757 12.1533 33.0291 11.74C32.7891 11.3267 32.6691 10.8567 32.6691 10.33C32.6691 9.79667 32.7857 9.32667 33.0191 8.92C33.2591 8.50667 33.5857 8.18333 33.9991 7.95C34.4191 7.71667 34.8957 7.6 35.4291 7.6C35.9491 7.6 36.4124 7.71333 36.8191 7.94C37.2257 8.16667 37.5457 8.48667 37.7791 8.9C38.0124 9.31333 38.1291 9.8 38.1291 10.36C38.1291 10.4133 38.1257 10.4733 38.1191 10.54C38.1191 10.6067 38.1157 10.67 38.1091 10.73H33.6591V9.9H37.4491L36.9591 10.16C36.9657 9.85333 36.9024 9.58333 36.7691 9.35C36.6357 9.11667 36.4524 8.93333 36.2191 8.8C35.9924 8.66667 35.7291 8.6 35.4291 8.6C35.1224 8.6 34.8524 8.66667 34.6191 8.8C34.3924 8.93333 34.2124 9.12 34.0791 9.36C33.9524 9.59333 33.8891 9.87 33.8891 10.19V10.39C33.8891 10.71 33.9624 10.9933 34.1091 11.24C34.2557 11.4867 34.4624 11.6767 34.7291 11.81C34.9957 11.9433 35.3024 12.01 35.6491 12.01C35.9491 12.01 36.2191 11.9633 36.4591 11.87C36.6991 11.7767 36.9124 11.63 37.0991 11.43L37.7691 12.2C37.5291 12.48 37.2257 12.6967 36.8591 12.85C36.4991 12.9967 36.0857 13.07 35.6191 13.07ZM39.3298 13V5.58H40.5798V13H39.3298ZM44.7304 13.07C44.1371 13.07 43.6171 12.9533 43.1704 12.72C42.7304 12.48 42.3871 12.1533 42.1404 11.74C41.9004 11.3267 41.7804 10.8567 41.7804 10.33C41.7804 9.79667 41.8971 9.32667 42.1304 8.92C42.3704 8.50667 42.6971 8.18333 43.1104 7.95C43.5304 7.71667 44.0071 7.6 44.5404 7.6C45.0604 7.6 45.5237 7.71333 45.9304 7.94C46.3371 8.16667 46.6571 8.48667 46.8904 8.9C47.1237 9.31333 47.2404 9.8 47.2404 10.36C47.2404 10.4133 47.2371 10.4733 47.2304 10.54C47.2304 10.6067 47.2271 10.67 47.2204 10.73H42.7704V9.9H46.5604L46.0704 10.16C46.0771 9.85333 46.0137 9.58333 45.8804 9.35C45.7471 9.11667 45.5637 8.93333 45.3304 8.8C45.1037 8.66667 44.8404 8.6 44.5404 8.6C44.2337 8.6 43.9637 8.66667 43.7304 8.8C43.5037 8.93333 43.3237 9.12 43.1904 9.36C43.0637 9.59333 43.0004 9.87 43.0004 10.19V10.39C43.0004 10.71 43.0737 10.9933 43.2204 11.24C43.3671 11.4867 43.5737 11.6767 43.8404 11.81C44.1071 11.9433 44.4137 12.01 44.7604 12.01C45.0604 12.01 45.3304 11.9633 45.5704 11.87C45.8104 11.7767 46.0237 11.63 46.2104 11.43L46.8804 12.2C46.6404 12.48 46.3371 12.6967 45.9704 12.85C45.6104 12.9967 45.1971 13.07 44.7304 13.07ZM50.8911 13.07C50.3311 13.07 49.8311 12.9533 49.3911 12.72C48.9578 12.48 48.6178 12.1533 48.3711 11.74C48.1244 11.3267 48.0011 10.8567 48.0011 10.33C48.0011 9.79667 48.1244 9.32667 48.3711 8.92C48.6178 8.50667 48.9578 8.18333 49.3911 7.95C49.8311 7.71667 50.3311 7.6 50.8911 7.6C51.4111 7.6 51.8678 7.70667 52.2611 7.92C52.6611 8.12667 52.9644 8.43333 53.1711 8.84L52.2111 9.4C52.0511 9.14667 51.8544 8.96 51.6211 8.84C51.3944 8.72 51.1478 8.66 50.8811 8.66C50.5744 8.66 50.2978 8.72667 50.0511 8.86C49.8044 8.99333 49.6111 9.18667 49.4711 9.44C49.3311 9.68667 49.2611 9.98333 49.2611 10.33C49.2611 10.6767 49.3311 10.9767 49.4711 11.23C49.6111 11.4767 49.8044 11.6667 50.0511 11.8C50.2978 11.9333 50.5744 12 50.8811 12C51.1478 12 51.3944 11.94 51.6211 11.82C51.8544 11.7 52.0511 11.5133 52.2111 11.26L53.1711 11.82C52.9644 12.22 52.6611 12.53 52.2611 12.75C51.8678 12.9633 51.4111 13.07 50.8911 13.07ZM56.33 13.07C55.7433 13.07 55.29 12.92 54.97 12.62C54.65 12.3133 54.49 11.8633 54.49 11.27V6.48H55.74V11.24C55.74 11.4933 55.8033 11.69 55.93 11.83C56.0633 11.97 56.2467 12.04 56.48 12.04C56.76 12.04 56.9933 11.9667 57.18 11.82L57.53 12.71C57.3833 12.83 57.2033 12.92 56.99 12.98C56.7767 13.04 56.5567 13.07 56.33 13.07ZM53.61 8.7V7.7H57.17V8.7H53.61Z" fill="#FBF7F5"/>
</g>
<defs>
<filter id="filter0_d_2261_1805" x="0" y="0" width="73" height="26" filterUnits="userSpaceOnUse" color-interpolation-filters="sRGB">
<feFlood flood-opacity="0" result="BackgroundImageFix"/>
<feColorMatrix in="SourceAlpha" type="matrix" values="0 0 0 0 0 0 0 0 0 0 0 0 0 0 0 0 0 0 127 0" result="hardAlpha"/>
<feOffset dy="4"/>
<feGaussianBlur stdDeviation="2"/>
<feComposite in2="hardAlpha" operator="out"/>
<feColorMatrix type="matrix" values="0 0 0 0 0 0 0 0 0 0 0 0 0 0 0 0 0 0 0.25 0"/>
<feBlend mode="normal" in2="BackgroundImageFix" result="effect1_dropShadow_2261_1805"/>
<feBlend mode="normal" in="BackgroundImageFix" in2="effect1_dropShadow_2261_1805" result="BackgroundImageFix"/>
<feBlend mode="normal" in="SourceGraphic" in2="BackgroundImageFix" result="shape"/>
</filter>
</defs>
</svg>
