<svg width="82" height="18" viewBox="0 0 82 18" fill="none" xmlns="http://www.w3.org/2000/svg">
<rect width="82" height="18" rx="5" fill="url(#paint0_linear_4002_1555)" fill-opacity="0.2"/>
<rect width="82" height="18" rx="5" fill="url(#paint1_linear_4002_1555)" fill-opacity="0.2"/>
<g clip-path="url(#clip0_4002_1555)">
<path d="M13.0416 10.7915H13.9583V8.95817H15.7916V8.0415H13.9583V6.20817H13.0416V8.0415H11.2083V8.95817H13.0416V10.7915ZM13.5 13.0832C12.8659 13.0832 12.2701 12.9629 11.7125 12.7222C11.1548 12.4816 10.6698 12.155 10.2573 11.7425C9.84475 11.33 9.51819 10.845 9.27756 10.2873C9.03694 9.7297 8.91663 9.13386 8.91663 8.49984C8.91663 7.86581 9.03694 7.26998 9.27756 6.71234C9.51819 6.1547 9.84475 5.66963 10.2573 5.25713C10.6698 4.84463 11.1548 4.51807 11.7125 4.27744C12.2701 4.03682 12.8659 3.9165 13.5 3.9165C14.134 3.9165 14.7298 4.03682 15.2875 4.27744C15.8451 4.51807 16.3302 4.84463 16.7427 5.25713C17.1552 5.66963 17.4817 6.1547 17.7224 6.71234C17.963 7.26998 18.0833 7.86581 18.0833 8.49984C18.0833 9.13386 17.963 9.7297 17.7224 10.2873C17.4817 10.845 17.1552 11.33 16.7427 11.7425C16.3302 12.155 15.8451 12.4816 15.2875 12.7222C14.7298 12.9629 14.134 13.0832 13.5 13.0832ZM13.5 12.1665C14.5236 12.1665 15.3906 11.8113 16.101 11.1009C16.8114 10.3905 17.1666 9.52345 17.1666 8.49984C17.1666 7.47623 16.8114 6.60921 16.101 5.8988C15.3906 5.18838 14.5236 4.83317 13.5 4.83317C12.4763 4.83317 11.6093 5.18838 10.8989 5.8988C10.1885 6.60921 9.83329 7.47623 9.83329 8.49984C9.83329 9.52345 10.1885 10.3905 10.8989 11.1009C11.6093 11.8113 12.4763 12.1665 13.5 12.1665Z" fill="#FBF7F5"/>
</g>
<path d="M23.0131 13.0001L26.1189 5.98039L27.3988 5.97231L30.6029 12.9522L29.243 12.9608L26.4932 6.66804L27.0132 6.66476L24.353 12.9917L23.0131 13.0001ZM24.4528 11.371L24.7964 10.3488L28.5763 10.325L28.9327 11.3427L24.4528 11.371ZM38.0789 7.50498C38.5056 7.50229 38.8828 7.58325 39.2105 7.74785C39.5449 7.91241 39.8065 8.16743 39.9953 8.51291C40.1842 8.85173 40.2803 9.29113 40.2837 9.83112L40.303 12.8911L39.053 12.8989L39.0347 9.999C39.0317 9.52568 38.9262 9.173 38.718 8.94098C38.5099 8.70895 38.2125 8.59416 37.8258 8.5966C37.5525 8.59832 37.3096 8.65986 37.097 8.7812C36.8911 8.9025 36.7289 9.0802 36.6103 9.31428C36.4985 9.54832 36.4437 9.84534 36.4459 10.2053L36.463 12.9153L35.2131 12.9232L35.1948 10.0232C35.1918 9.5499 35.0862 9.19722 34.8781 8.9652C34.67 8.73317 34.3726 8.61838 33.9859 8.62082C33.7126 8.62254 33.4696 8.68408 33.2571 8.80542C33.0511 8.92672 32.8889 9.10442 32.7704 9.3385C32.6585 9.57254 32.6038 9.86956 32.606 10.2296L32.6231 12.9395L31.3731 12.9474L31.3395 7.60749L32.5294 7.59999L32.5384 9.01996L32.3257 8.60129C32.5036 8.2535 32.7619 7.98853 33.1008 7.80639C33.4463 7.6242 33.839 7.53172 34.279 7.52895C34.779 7.5258 35.2131 7.64639 35.5813 7.89074C35.9562 8.13505 36.2052 8.50682 36.3284 9.00605L35.8373 8.83915C36.0081 8.43806 36.2928 8.11626 36.6912 7.87374C37.0897 7.63122 37.5523 7.5083 38.0789 7.50498ZM44.8607 12.9323C44.4273 12.935 44.03 12.8376 43.6688 12.6398C43.3142 12.4421 43.029 12.1439 42.8131 11.7452C42.6039 11.3399 42.4973 10.8272 42.4934 10.2072C42.4895 9.58054 42.5862 9.06658 42.7837 8.66533C42.9878 8.26403 43.266 7.96561 43.6181 7.77005C43.9701 7.56783 44.3728 7.46528 44.8262 7.46242C45.3528 7.4591 45.8169 7.56951 46.2183 7.79365C46.6264 8.01775 46.9484 8.33239 47.1842 8.73758C47.4268 9.14272 47.5498 9.62195 47.5533 10.1753C47.5568 10.7286 47.4399 11.2127 47.2025 11.6275C46.9717 12.0356 46.6537 12.3543 46.2485 12.5836C45.8499 12.8127 45.3873 12.929 44.8607 12.9323ZM41.9125 14.8209L41.8666 7.54109L43.0566 7.53359L43.0645 8.79356L43.0335 10.2138L43.1424 11.6331L43.1625 14.8131L41.9125 14.8209ZM44.7139 11.8632C45.0139 11.8613 45.2801 11.793 45.5126 11.6582C45.7518 11.5233 45.9406 11.3288 46.079 11.0746C46.2174 10.8204 46.2855 10.5233 46.2833 10.1833C46.2812 9.83663 46.2093 9.54041 46.0677 9.29463C45.9261 9.04218 45.7349 8.85005 45.4941 8.71824C45.2599 8.58638 44.9928 8.52139 44.6928 8.52329C44.3929 8.52518 44.1233 8.59355 43.8841 8.72839C43.645 8.86324 43.4562 9.05776 43.3178 9.31197C43.1794 9.55952 43.1112 9.85662 43.1134 10.2033C43.1156 10.5433 43.1874 10.8395 43.329 11.0919C43.4706 11.3444 43.6618 11.5365 43.9027 11.6683C44.1435 11.8001 44.4139 11.8651 44.7139 11.8632ZM48.7556 12.8377L48.7088 5.41789L49.9588 5.41001L50.0056 12.8299L48.7556 12.8377ZM51.6462 12.8195L51.6125 7.47962L52.8625 7.47174L52.8962 12.8116L51.6462 12.8195ZM52.2369 6.59566C52.0036 6.59714 51.8098 6.52502 51.6556 6.37933C51.508 6.23359 51.4335 6.05739 51.4322 5.85073C51.4309 5.6374 51.5031 5.46027 51.6489 5.31935C51.8013 5.17172 51.9941 5.09717 52.2275 5.09569C52.4608 5.09422 52.6512 5.16302 52.7988 5.30209C52.953 5.43446 53.0307 5.60397 53.032 5.81063C53.0334 6.03063 52.9612 6.21775 52.8155 6.37201C52.6698 6.5196 52.4769 6.59415 52.2369 6.59566ZM54.7067 12.8002L54.6712 7.16032C54.6676 6.60033 54.8281 6.15265 55.1527 5.81726C55.4839 5.47516 55.9561 5.30218 56.5695 5.29831C56.7895 5.29692 56.9963 5.31895 57.1899 5.3644C57.3902 5.4098 57.5573 5.48209 57.6913 5.58124L57.3572 6.52337C57.2634 6.45062 57.1564 6.39797 57.0362 6.36539C56.916 6.32615 56.7925 6.30693 56.6658 6.30772C56.4058 6.30936 56.2096 6.38394 56.0772 6.53144C55.9448 6.67228 55.8795 6.88603 55.8813 7.17269L55.8851 7.77268L55.9286 8.33241L55.9567 12.7923L54.7067 12.8002ZM53.7996 8.50585L53.7933 7.50587L57.3533 7.48341L57.3596 8.48339L53.7996 8.50585ZM58.7784 14.7846C58.5184 14.7862 58.2581 14.7445 57.9976 14.6595C57.7371 14.5745 57.5196 14.4558 57.3453 14.3036L57.8395 13.3805C57.9669 13.493 58.1108 13.5821 58.2712 13.6477C58.4316 13.7134 58.5952 13.7457 58.7618 13.7447C58.9885 13.7432 59.1715 13.6854 59.3108 13.5712C59.45 13.457 59.5788 13.2662 59.6972 12.9987L60.0027 12.2968L60.1018 12.1462L62.092 7.41352L63.292 7.40595L60.8284 13.1916C60.6643 13.5926 60.4796 13.9105 60.2744 14.1451C60.0759 14.3797 59.8502 14.5445 59.5975 14.6394C59.3514 14.7343 59.0784 14.7827 58.7784 14.7846ZM59.8669 12.9577L57.4221 7.44298L58.722 7.43478L60.7111 12.0323L59.8669 12.9577Z" fill="#FBF7F5"/>
<defs>
<linearGradient id="paint0_linear_4002_1555" x1="84.9818" y1="1.5" x2="7.26929" y2="34.909" gradientUnits="userSpaceOnUse">
<stop offset="0.168244" stop-color="#A6AF6B" stop-opacity="0.42"/>
<stop offset="0.739484" stop-color="#EE7B67" stop-opacity="0.58"/>
</linearGradient>
<linearGradient id="paint1_linear_4002_1555" x1="41" y1="0" x2="41" y2="18" gradientUnits="userSpaceOnUse">
<stop stop-color="white"/>
<stop offset="1"/>
</linearGradient>
<clipPath id="clip0_4002_1555">
<rect width="11" height="11" fill="white" transform="translate(8 3)"/>
</clipPath>
</defs>
</svg>
