<svg width="61" height="18" viewBox="0 0 61 18" fill="none" xmlns="http://www.w3.org/2000/svg">
<rect width="61" height="18" rx="5" fill="url(#paint0_linear_2016_724)" fill-opacity="0.2"/>
<path d="M13.9125 12.625L12.6063 9.39375L9.375 8.0875V7.44583L17.625 4.375L14.5542 12.625H13.9125ZM14.2104 10.9292L16.0667 5.93333L11.0708 7.78958L13.3167 8.68333L14.2104 10.9292Z" fill="#FBF7F5"/>
<path d="M26.11 13.1C25.5633 13.1 25.04 13.0233 24.54 12.87C24.04 12.71 23.6433 12.5067 23.35 12.26L23.8 11.25C24.08 11.47 24.4267 11.6533 24.84 11.8C25.2533 11.9467 25.6767 12.02 26.11 12.02C26.4767 12.02 26.7733 11.98 27 11.9C27.2267 11.82 27.3933 11.7133 27.5 11.58C27.6067 11.44 27.66 11.2833 27.66 11.11C27.66 10.8967 27.5833 10.7267 27.43 10.6C27.2767 10.4667 27.0767 10.3633 26.83 10.29C26.59 10.21 26.32 10.1367 26.02 10.07C25.7267 10.0033 25.43 9.92667 25.13 9.84C24.8367 9.74667 24.5667 9.63 24.32 9.49C24.08 9.34333 23.8833 9.15 23.73 8.91C23.5767 8.67 23.5 8.36333 23.5 7.99C23.5 7.61 23.6 7.26333 23.8 6.95C24.0067 6.63 24.3167 6.37667 24.73 6.19C25.15 5.99667 25.68 5.9 26.32 5.9C26.74 5.9 27.1567 5.95333 27.57 6.06C27.9833 6.16667 28.3433 6.32 28.65 6.52L28.24 7.53C27.9267 7.34333 27.6033 7.20667 27.27 7.12C26.9367 7.02667 26.6167 6.98 26.31 6.98C25.95 6.98 25.6567 7.02333 25.43 7.11C25.21 7.19667 25.0467 7.31 24.94 7.45C24.84 7.59 24.79 7.75 24.79 7.93C24.79 8.14333 24.8633 8.31667 25.01 8.45C25.1633 8.57667 25.36 8.67667 25.6 8.75C25.8467 8.82333 26.12 8.89667 26.42 8.97C26.72 9.03667 27.0167 9.11333 27.31 9.2C27.61 9.28667 27.88 9.4 28.12 9.54C28.3667 9.68 28.5633 9.87 28.71 10.11C28.8633 10.35 28.94 10.6533 28.94 11.02C28.94 11.3933 28.8367 11.74 28.63 12.06C28.43 12.3733 28.12 12.6267 27.7 12.82C27.28 13.0067 26.75 13.1 26.11 13.1ZM32.6191 13.07C32.0257 13.07 31.5057 12.9533 31.0591 12.72C30.6191 12.48 30.2757 12.1533 30.0291 11.74C29.7891 11.3267 29.6691 10.8567 29.6691 10.33C29.6691 9.79667 29.7857 9.32667 30.0191 8.92C30.2591 8.50667 30.5857 8.18333 30.9991 7.95C31.4191 7.71667 31.8957 7.6 32.4291 7.6C32.9491 7.6 33.4124 7.71333 33.8191 7.94C34.2257 8.16667 34.5457 8.48667 34.7791 8.9C35.0124 9.31333 35.1291 9.8 35.1291 10.36C35.1291 10.4133 35.1257 10.4733 35.1191 10.54C35.1191 10.6067 35.1157 10.67 35.1091 10.73H30.6591V9.9H34.4491L33.9591 10.16C33.9657 9.85333 33.9024 9.58333 33.7691 9.35C33.6357 9.11667 33.4524 8.93333 33.2191 8.8C32.9924 8.66667 32.7291 8.6 32.4291 8.6C32.1224 8.6 31.8524 8.66667 31.6191 8.8C31.3924 8.93333 31.2124 9.12 31.0791 9.36C30.9524 9.59333 30.8891 9.87 30.8891 10.19V10.39C30.8891 10.71 30.9624 10.9933 31.1091 11.24C31.2557 11.4867 31.4624 11.6767 31.7291 11.81C31.9957 11.9433 32.3024 12.01 32.6491 12.01C32.9491 12.01 33.2191 11.9633 33.4591 11.87C33.6991 11.7767 33.9124 11.63 34.0991 11.43L34.7691 12.2C34.5291 12.48 34.2257 12.6967 33.8591 12.85C33.4991 12.9967 33.0857 13.07 32.6191 13.07ZM39.3598 7.6C39.7864 7.6 40.1664 7.68333 40.4998 7.85C40.8398 8.01667 41.1064 8.27333 41.2998 8.62C41.4931 8.96 41.5898 9.4 41.5898 9.94V13H40.3398V10.1C40.3398 9.62667 40.2264 9.27333 39.9998 9.04C39.7798 8.80667 39.4698 8.69 39.0698 8.69C38.7764 8.69 38.5164 8.75 38.2898 8.87C38.0631 8.99 37.8864 9.17 37.7598 9.41C37.6398 9.64333 37.5798 9.94 37.5798 10.3V13H36.3298V7.66H37.5198V9.1L37.3098 8.66C37.4964 8.32 37.7664 8.06 38.1198 7.88C38.4798 7.69333 38.8931 7.6 39.3598 7.6ZM45.4452 13.07C44.9319 13.07 44.4686 12.9567 44.0552 12.73C43.6486 12.4967 43.3286 12.1767 43.0952 11.77C42.8619 11.3633 42.7452 10.8833 42.7452 10.33C42.7452 9.77667 42.8619 9.29667 43.0952 8.89C43.3286 8.48333 43.6486 8.16667 44.0552 7.94C44.4686 7.71333 44.9319 7.6 45.4452 7.6C45.8919 7.6 46.2919 7.7 46.6452 7.9C46.9986 8.09333 47.2786 8.39 47.4852 8.79C47.6919 9.19 47.7952 9.70333 47.7952 10.33C47.7952 10.95 47.6952 11.4633 47.4952 11.87C47.2952 12.27 47.0186 12.57 46.6652 12.77C46.3119 12.97 45.9052 13.07 45.4452 13.07ZM45.5952 12C45.8952 12 46.1619 11.9333 46.3952 11.8C46.6352 11.6667 46.8252 11.4733 46.9652 11.22C47.1119 10.9667 47.1852 10.67 47.1852 10.33C47.1852 9.98333 47.1119 9.68667 46.9652 9.44C46.8252 9.18667 46.6352 8.99333 46.3952 8.86C46.1619 8.72667 45.8952 8.66 45.5952 8.66C45.2952 8.66 45.0252 8.72667 44.7852 8.86C44.5519 8.99333 44.3619 9.18667 44.2152 9.44C44.0752 9.68667 44.0052 9.98333 44.0052 10.33C44.0052 10.67 44.0752 10.9667 44.2152 11.22C44.3619 11.4733 44.5519 11.6667 44.7852 11.8C45.0252 11.9333 45.2952 12 45.5952 12ZM47.2152 13V11.74L47.2652 10.32L47.1652 8.9V5.58H48.4052V13H47.2152Z" fill="#FBF7F5"/>
<defs>
<linearGradient id="paint0_linear_2016_724" x1="30.5" y1="0" x2="30.5" y2="18" gradientUnits="userSpaceOnUse">
<stop stop-color="white" stop-opacity="0.03"/>
<stop offset="1"/>
</linearGradient>
</defs>
</svg>
