<svg xmlns="http://www.w3.org/2000/svg" viewBox="0 0 24 24" fill="currentColor">
  <path d="M10.584 17.21l-.88-2.392s-1.43 1.594-3.573 1.594c-1.897 0-3.244-1.649-3.244-4.288 0-3.382 1.704-4.591 3.381-4.591 2.42 0 3.189 1.567 3.849 3.574l.88 2.749c.88 2.666 2.529 4.81 7.285 4.81 3.409 0 5.718-1.044 5.718-3.793 0-2.227-1.265-3.381-3.63-3.931l-1.758-.385c-1.21-.275-1.567-.77-1.567-1.594 0-.935.742-1.484 1.952-1.484 1.32 0 2.034.495 2.144 1.677l2.749-.33c-.22-2.474-1.924-3.492-4.729-3.492-2.474 0-4.893.935-4.893 3.932 0 1.87.907 3.051 3.189 3.601l1.87.44c1.402.33 1.869.825 1.869 1.676 0 1.017-.88 1.456-2.529 1.456-2.447 0-3.409-1.29-3.986-3.051l-.907-2.749c-1.155-3.519-2.997-4.778-6.653-4.778C1.623 5.85 0 8.368 0 12.12c0 3.601 1.623 5.883 4.756 5.883 2.858-.001 4.397-1.29 5.828-2.793z"/>
</svg>
